<?xml version="1.0" encoding="utf-8"?>
<!-- Generator: Adobe Illustrator 16.0.0, SVG Export Plug-In . SVG Version: 6.00 Build 0)  -->
<!DOCTYPE svg PUBLIC "-//W3C//DTD SVG 1.1//EN" "http://www.w3.org/Graphics/SVG/1.1/DTD/svg11.dtd">
<svg version="1.1" id="Capa_1" xmlns="http://www.w3.org/2000/svg" xmlns:xlink="http://www.w3.org/1999/xlink" x="0px" y="0px"
	 width="512px" height="512px" viewBox="0 0 512 512" enable-background="new 0 0 512 512" xml:space="preserve">
<g id="XMLID_195_" opacity="0.05">
	<path id="XMLID_441_" d="M199.553,223.772c0.095-0.638,0.385-1.227,0.845-1.679c0.007-0.006,0.014-0.014,0.021-0.02
		c1.685-1.687,1.28-4.823-0.905-7.008c-2.185-2.186-5.322-2.59-7.008-0.905c-0.008,0.008-0.016,0.015-0.023,0.023
		c-0.45,0.458-1.04,0.749-1.676,0.843c-0.716,0.107-1.405,0.438-1.953,0.995c-1.308,1.332-1.312,3.489-0.009,4.826
		c0.314,0.321,0.675,0.569,1.062,0.742c1.375,0.615,2.469,1.709,3.084,3.084c0.173,0.387,0.42,0.748,0.742,1.062
		c1.336,1.303,3.495,1.298,4.826-0.01C199.116,225.178,199.448,224.488,199.553,223.772L199.553,223.772z"/>
	
		<ellipse id="XMLID_481_" transform="matrix(-0.7071 -0.7071 0.7071 -0.7071 196.057 497.979)" cx="201.163" cy="208.385" rx="2.362" ry="2.978"/>
	
		<ellipse id="XMLID_483_" transform="matrix(-0.7072 -0.707 0.707 -0.7072 180.709 492.2771)" cx="192.287" cy="208.72" rx="2.362" ry="2.979"/>
	
		<ellipse id="XMLID_84_" transform="matrix(-0.7071 -0.7071 0.7071 -0.7071 201.3087 510.6626)" cx="206.416" cy="213.639" rx="2.362" ry="2.978"/>
	
		<ellipse id="XMLID_5_" transform="matrix(-0.707 -0.7072 0.7072 -0.707 194.3043 525.3126)" cx="205.97" cy="222.406" rx="2.362" ry="2.978"/>
</g>
<g id="XMLID_1_" opacity="0.05">
	<path id="XMLID_7_" d="M134.025,253.113c0.095-0.637,0.385-1.227,0.845-1.679c0.007-0.006,0.014-0.013,0.021-0.02
		c1.685-1.685,1.28-4.823-0.905-7.008c-2.185-2.185-5.323-2.59-7.008-0.905c-0.008,0.007-0.016,0.016-0.022,0.022
		c-0.45,0.459-1.041,0.75-1.677,0.844c-0.716,0.107-1.405,0.438-1.953,0.996c-1.308,1.331-1.312,3.489-0.009,4.825
		c0.314,0.322,0.675,0.569,1.061,0.742c1.375,0.615,2.47,1.71,3.085,3.085c0.173,0.386,0.42,0.748,0.742,1.061
		c1.336,1.303,3.495,1.299,4.826-0.009C133.588,254.519,133.919,253.829,134.025,253.113L134.025,253.113z"/>
	
		<ellipse id="XMLID_6_" transform="matrix(-0.7071 -0.7072 0.7072 -0.7071 63.4266 501.7265)" cx="135.635" cy="237.726" rx="2.362" ry="2.978"/>
	
		<ellipse id="XMLID_4_" transform="matrix(-0.7072 -0.7071 0.7071 -0.7072 48.0759 496.0337)" cx="126.759" cy="238.061" rx="2.362" ry="2.978"/>
	
		<ellipse id="XMLID_3_" transform="matrix(-0.7072 -0.707 0.707 -0.7072 68.7376 514.4261)" cx="140.888" cy="242.98" rx="2.362" ry="2.978"/>
	
		<ellipse id="XMLID_2_" transform="matrix(-0.7071 -0.7071 0.7071 -0.7071 61.7377 529.0667)" cx="140.442" cy="251.747" rx="2.362" ry="2.979"/>
</g>
<g id="XMLID_8_" opacity="0.05">
	<path id="XMLID_13_" d="M73.876,220.348c0.095-0.637,0.385-1.227,0.844-1.678c0.007-0.007,0.014-0.014,0.021-0.021
		c1.685-1.686,1.28-4.823-0.905-7.008c-2.185-2.185-5.323-2.59-7.008-0.905c-0.008,0.007-0.016,0.015-0.022,0.023
		c-0.45,0.459-1.041,0.75-1.677,0.843c-0.716,0.107-1.405,0.438-1.953,0.996c-1.308,1.331-1.312,3.489-0.009,4.825
		c0.314,0.322,0.675,0.57,1.061,0.743c1.375,0.615,2.47,1.709,3.085,3.084c0.173,0.387,0.42,0.748,0.742,1.061
		c1.336,1.303,3.495,1.299,4.826-0.009C73.439,221.755,73.77,221.065,73.876,220.348L73.876,220.348z"/>
	
		<ellipse id="XMLID_12_" transform="matrix(-0.7072 -0.7071 0.7071 -0.7072 -16.0531 403.2751)" cx="75.486" cy="204.962" rx="2.362" ry="2.979"/>
	
		<ellipse id="XMLID_11_" transform="matrix(-0.7072 -0.707 0.707 -0.7072 -31.4281 397.5785)" cx="66.61" cy="205.297" rx="2.362" ry="2.979"/>
	
		<ellipse id="XMLID_10_" transform="matrix(-0.7072 -0.7071 0.7071 -0.7072 -10.8003 415.9585)" cx="80.739" cy="210.216" rx="2.362" ry="2.978"/>
	
		<ellipse id="XMLID_9_" transform="matrix(-0.707 -0.7072 0.7072 -0.707 -17.8065 430.5896)" cx="80.293" cy="218.983" rx="2.362" ry="2.979"/>
</g>
<g id="XMLID_14_" opacity="0.05">
	<path id="XMLID_19_" d="M15.683,252.624c0.095-0.637,0.385-1.227,0.845-1.679c0.006-0.006,0.014-0.013,0.021-0.02
		c1.685-1.686,1.28-4.823-0.905-7.008c-2.185-2.185-5.322-2.59-7.008-0.905c-0.007,0.007-0.015,0.015-0.022,0.022
		c-0.45,0.459-1.041,0.749-1.677,0.843c-0.716,0.107-1.405,0.438-1.953,0.996c-1.308,1.331-1.312,3.488-0.009,4.825
		c0.314,0.322,0.675,0.569,1.062,0.742c1.375,0.616,2.47,1.71,3.084,3.085c0.173,0.386,0.42,0.748,0.742,1.061
		c1.336,1.303,3.495,1.299,4.826-0.01C15.245,254.029,15.577,253.34,15.683,252.624L15.683,252.624z"/>
	
		<ellipse id="XMLID_18_" transform="matrix(-0.7072 -0.7071 0.7071 -0.7072 -138.2177 417.228)" cx="17.293" cy="237.237" rx="2.362" ry="2.979"/>
	
		<ellipse id="XMLID_17_" transform="matrix(-0.7072 -0.7071 0.7071 -0.7072 -153.6063 411.5243)" cx="8.417" cy="237.572" rx="2.362" ry="2.978"/>
	
		<ellipse id="XMLID_16_" transform="matrix(-0.7071 -0.7071 0.7071 -0.7071 -132.9781 429.9001)" cx="22.546" cy="242.491" rx="2.362" ry="2.978"/>
	
		<ellipse id="XMLID_15_" transform="matrix(-0.7072 -0.7071 0.7071 -0.7072 -139.9242 444.5641)" cx="22.101" cy="251.258" rx="2.362" ry="2.978"/>
</g>
<g id="XMLID_38_" opacity="0.05">
	<path id="XMLID_43_" d="M224.004,148.463c0.094-0.638,0.384-1.227,0.844-1.679c0.006-0.006,0.014-0.013,0.021-0.02
		c1.685-1.686,1.28-4.823-0.905-7.008c-2.185-2.186-5.322-2.59-7.008-0.905c-0.007,0.008-0.016,0.015-0.023,0.023
		c-0.45,0.459-1.04,0.749-1.676,0.843c-0.716,0.107-1.405,0.438-1.953,0.995c-1.308,1.332-1.312,3.489-0.009,4.825
		c0.314,0.322,0.675,0.57,1.062,0.742c1.375,0.615,2.469,1.71,3.084,3.085c0.173,0.386,0.42,0.748,0.743,1.062
		c1.335,1.303,3.495,1.298,4.826-0.01C223.567,149.869,223.899,149.18,224.004,148.463L224.004,148.463z"/>
	
		<ellipse id="XMLID_42_" transform="matrix(-0.7071 -0.7071 0.7071 -0.7071 291.0475 386.7087)" cx="225.614" cy="133.076" rx="2.362" ry="2.979"/>
	
		<ellipse id="XMLID_41_" transform="matrix(-0.7072 -0.707 0.707 -0.7072 275.6949 380.9962)" cx="216.738" cy="133.412" rx="2.362" ry="2.979"/>
	
		<ellipse id="XMLID_40_" transform="matrix(-0.7072 -0.7071 0.7071 -0.7072 296.3196 399.388)" cx="230.867" cy="138.331" rx="2.362" ry="2.978"/>
	
		<ellipse id="XMLID_39_" transform="matrix(-0.7071 -0.7072 0.7072 -0.7071 289.3209 414.0488)" cx="230.422" cy="147.098" rx="2.362" ry="2.978"/>
</g>
<g id="XMLID_32_" opacity="0.05">
	<path id="XMLID_37_" d="M158.476,177.804c0.095-0.637,0.385-1.227,0.844-1.679c0.007-0.006,0.014-0.013,0.021-0.02
		c1.685-1.686,1.28-4.823-0.905-7.008c-2.185-2.186-5.322-2.59-7.008-0.905c-0.007,0.008-0.015,0.015-0.022,0.023
		c-0.45,0.459-1.041,0.75-1.677,0.843c-0.716,0.107-1.405,0.438-1.952,0.996c-1.308,1.331-1.312,3.489-0.009,4.825
		c0.314,0.322,0.675,0.569,1.062,0.742c1.375,0.615,2.469,1.71,3.084,3.085c0.173,0.387,0.42,0.748,0.742,1.062
		c1.336,1.303,3.495,1.298,4.826-0.01C158.038,179.21,158.37,178.521,158.476,177.804L158.476,177.804z"/>
	
		<ellipse id="XMLID_36_" transform="matrix(-0.7072 -0.7071 0.7071 -0.7072 158.4532 390.4616)" cx="160.085" cy="162.417" rx="2.362" ry="2.979"/>
	
		<ellipse id="XMLID_35_" transform="matrix(-0.7071 -0.7071 0.7071 -0.7071 143.048 384.7578)" cx="151.21" cy="162.753" rx="2.362" ry="2.979"/>
	
		<ellipse id="XMLID_34_" transform="matrix(-0.7071 -0.7072 0.7072 -0.7071 163.6717 403.1453)" cx="165.339" cy="167.672" rx="2.362" ry="2.978"/>
	
		<ellipse id="XMLID_33_" transform="matrix(-0.7071 -0.7072 0.7072 -0.7071 156.7118 417.7963)" cx="164.893" cy="176.439" rx="2.362" ry="2.978"/>
</g>
<g id="XMLID_26_" opacity="0.05">
	<path id="XMLID_31_" d="M98.327,145.04c0.095-0.638,0.385-1.227,0.844-1.679c0.007-0.007,0.014-0.013,0.021-0.02
		c1.685-1.686,1.28-4.823-0.905-7.008c-2.185-2.186-5.322-2.59-7.008-0.905c-0.007,0.007-0.015,0.015-0.022,0.022
		c-0.45,0.459-1.041,0.75-1.677,0.844c-0.716,0.106-1.405,0.438-1.953,0.995c-1.308,1.332-1.312,3.489-0.009,4.825
		c0.314,0.322,0.675,0.57,1.062,0.742c1.375,0.615,2.469,1.709,3.084,3.085c0.173,0.386,0.421,0.747,0.743,1.061
		c1.336,1.303,3.495,1.298,4.826-0.009C97.889,146.446,98.221,145.757,98.327,145.04L98.327,145.04z"/>
	
		<ellipse id="XMLID_30_" transform="matrix(-0.7071 -0.7071 0.7071 -0.7071 78.9234 291.9983)" cx="99.937" cy="129.654" rx="2.362" ry="2.979"/>
	
		<ellipse id="XMLID_29_" transform="matrix(-0.7072 -0.7071 0.7071 -0.7072 63.5464 286.2966)" cx="91.061" cy="129.989" rx="2.362" ry="2.979"/>
	
		<ellipse id="XMLID_28_" transform="matrix(-0.7071 -0.7071 0.7071 -0.7071 84.1762 304.6814)" cx="105.19" cy="134.907" rx="2.362" ry="2.978"/>
	
		<ellipse id="XMLID_27_" transform="matrix(-0.707 -0.7072 0.7072 -0.707 77.1911 319.3288)" cx="104.744" cy="143.674" rx="2.362" ry="2.978"/>
</g>
<g id="XMLID_20_" opacity="0.05">
	<path id="XMLID_25_" d="M40.134,177.315c0.095-0.637,0.385-1.227,0.844-1.678c0.007-0.007,0.014-0.014,0.021-0.021
		c1.685-1.686,1.28-4.823-0.905-7.008c-2.185-2.185-5.323-2.59-7.008-0.905c-0.008,0.007-0.015,0.015-0.022,0.023
		c-0.45,0.458-1.041,0.749-1.676,0.843c-0.717,0.107-1.405,0.438-1.953,0.995c-1.307,1.332-1.312,3.489-0.009,4.825
		c0.314,0.322,0.676,0.57,1.062,0.742c1.375,0.615,2.469,1.71,3.084,3.085c0.173,0.386,0.421,0.748,0.743,1.061
		c1.336,1.303,3.495,1.298,4.825-0.009C39.697,178.721,40.029,178.032,40.134,177.315L40.134,177.315z"/>
	
		<ellipse id="XMLID_24_" transform="matrix(-0.7071 -0.7071 0.7071 -0.7071 -43.2396 305.947)" cx="41.744" cy="161.929" rx="2.362" ry="2.979"/>
	
		<ellipse id="XMLID_23_" transform="matrix(-0.7072 -0.7071 0.7071 -0.7072 -58.6182 300.2494)" cx="32.868" cy="162.264" rx="2.362" ry="2.979"/>
	
		<ellipse id="XMLID_22_" transform="matrix(-0.7071 -0.7071 0.7071 -0.7071 -37.9874 318.6303)" cx="46.997" cy="167.183" rx="2.362" ry="2.979"/>
	
		<ellipse id="XMLID_21_" transform="matrix(-0.7071 -0.7072 0.7072 -0.7071 -44.9588 333.275)" cx="46.551" cy="175.95" rx="2.362" ry="2.978"/>
</g>
<g id="XMLID_62_" opacity="0.05">
	<path id="XMLID_67_" d="M224.004,148.463c0.094-0.638,0.384-1.227,0.844-1.679c0.006-0.006,0.014-0.013,0.021-0.02
		c1.685-1.686,1.28-4.823-0.905-7.008c-2.185-2.186-5.322-2.59-7.008-0.905c-0.007,0.008-0.016,0.015-0.023,0.023
		c-0.45,0.459-1.04,0.749-1.676,0.843c-0.716,0.107-1.405,0.438-1.953,0.995c-1.308,1.332-1.312,3.489-0.009,4.825
		c0.314,0.322,0.675,0.57,1.062,0.742c1.375,0.615,2.469,1.71,3.084,3.085c0.173,0.386,0.42,0.748,0.743,1.062
		c1.335,1.303,3.495,1.298,4.826-0.01C223.567,149.869,223.899,149.18,224.004,148.463L224.004,148.463z"/>
	
		<ellipse id="XMLID_66_" transform="matrix(-0.7071 -0.7071 0.7071 -0.7071 291.0475 386.7087)" cx="225.614" cy="133.076" rx="2.362" ry="2.979"/>
	
		<ellipse id="XMLID_65_" transform="matrix(-0.7072 -0.707 0.707 -0.7072 275.6949 380.9962)" cx="216.738" cy="133.412" rx="2.362" ry="2.979"/>
	
		<ellipse id="XMLID_64_" transform="matrix(-0.7072 -0.7071 0.7071 -0.7072 296.3196 399.388)" cx="230.867" cy="138.331" rx="2.362" ry="2.978"/>
	
		<ellipse id="XMLID_63_" transform="matrix(-0.7071 -0.7072 0.7072 -0.7071 289.3209 414.0488)" cx="230.422" cy="147.098" rx="2.362" ry="2.978"/>
</g>
<g id="XMLID_56_" opacity="0.05">
	<path id="XMLID_61_" d="M158.476,177.804c0.095-0.637,0.385-1.227,0.844-1.679c0.007-0.006,0.014-0.013,0.021-0.02
		c1.685-1.686,1.28-4.823-0.905-7.008c-2.185-2.186-5.322-2.59-7.008-0.905c-0.007,0.008-0.015,0.015-0.022,0.023
		c-0.45,0.459-1.041,0.75-1.677,0.843c-0.716,0.107-1.405,0.438-1.952,0.996c-1.308,1.331-1.312,3.489-0.009,4.825
		c0.314,0.322,0.675,0.569,1.062,0.742c1.375,0.615,2.469,1.71,3.084,3.085c0.173,0.387,0.42,0.748,0.742,1.062
		c1.336,1.303,3.495,1.298,4.826-0.01C158.038,179.21,158.37,178.521,158.476,177.804L158.476,177.804z"/>
	
		<ellipse id="XMLID_60_" transform="matrix(-0.7072 -0.7071 0.7071 -0.7072 158.4532 390.4616)" cx="160.085" cy="162.417" rx="2.362" ry="2.979"/>
	
		<ellipse id="XMLID_59_" transform="matrix(-0.7071 -0.7071 0.7071 -0.7071 143.048 384.7578)" cx="151.21" cy="162.753" rx="2.362" ry="2.979"/>
	
		<ellipse id="XMLID_58_" transform="matrix(-0.7071 -0.7072 0.7072 -0.7071 163.6717 403.1453)" cx="165.339" cy="167.672" rx="2.362" ry="2.978"/>
	
		<ellipse id="XMLID_57_" transform="matrix(-0.7071 -0.7072 0.7072 -0.7071 156.7118 417.7963)" cx="164.893" cy="176.439" rx="2.362" ry="2.978"/>
</g>
<g id="XMLID_50_" opacity="0.05">
	<path id="XMLID_55_" d="M98.327,145.04c0.095-0.638,0.385-1.227,0.844-1.679c0.007-0.007,0.014-0.013,0.021-0.02
		c1.685-1.686,1.28-4.823-0.905-7.008c-2.185-2.186-5.322-2.59-7.008-0.905c-0.007,0.007-0.015,0.015-0.022,0.022
		c-0.45,0.459-1.041,0.75-1.677,0.844c-0.716,0.106-1.405,0.438-1.953,0.995c-1.308,1.332-1.312,3.489-0.009,4.825
		c0.314,0.322,0.675,0.57,1.062,0.742c1.375,0.615,2.469,1.709,3.084,3.085c0.173,0.386,0.421,0.747,0.743,1.061
		c1.336,1.303,3.495,1.298,4.826-0.009C97.889,146.446,98.221,145.757,98.327,145.04L98.327,145.04z"/>
	
		<ellipse id="XMLID_54_" transform="matrix(-0.7071 -0.7071 0.7071 -0.7071 78.9234 291.9983)" cx="99.937" cy="129.654" rx="2.362" ry="2.979"/>
	
		<ellipse id="XMLID_53_" transform="matrix(-0.7072 -0.7071 0.7071 -0.7072 63.5464 286.2966)" cx="91.061" cy="129.989" rx="2.362" ry="2.979"/>
	
		<ellipse id="XMLID_52_" transform="matrix(-0.7071 -0.7071 0.7071 -0.7071 84.1762 304.6814)" cx="105.19" cy="134.907" rx="2.362" ry="2.978"/>
	
		<ellipse id="XMLID_51_" transform="matrix(-0.707 -0.7072 0.7072 -0.707 77.1911 319.3288)" cx="104.744" cy="143.674" rx="2.362" ry="2.978"/>
</g>
<g id="XMLID_44_" opacity="0.05">
	<path id="XMLID_49_" d="M40.134,177.315c0.095-0.637,0.385-1.227,0.844-1.678c0.007-0.007,0.014-0.014,0.021-0.021
		c1.685-1.686,1.28-4.823-0.905-7.008c-2.185-2.185-5.323-2.59-7.008-0.905c-0.008,0.007-0.015,0.015-0.022,0.023
		c-0.45,0.458-1.041,0.749-1.676,0.843c-0.717,0.107-1.405,0.438-1.953,0.995c-1.307,1.332-1.312,3.489-0.009,4.825
		c0.314,0.322,0.676,0.57,1.062,0.742c1.375,0.615,2.469,1.71,3.084,3.085c0.173,0.386,0.421,0.748,0.743,1.061
		c1.336,1.303,3.495,1.298,4.825-0.009C39.697,178.721,40.029,178.032,40.134,177.315L40.134,177.315z"/>
	
		<ellipse id="XMLID_48_" transform="matrix(-0.7071 -0.7071 0.7071 -0.7071 -43.2396 305.947)" cx="41.744" cy="161.929" rx="2.362" ry="2.979"/>
	
		<ellipse id="XMLID_47_" transform="matrix(-0.7072 -0.7071 0.7071 -0.7072 -58.6182 300.2494)" cx="32.868" cy="162.264" rx="2.362" ry="2.979"/>
	
		<ellipse id="XMLID_46_" transform="matrix(-0.7071 -0.7071 0.7071 -0.7071 -37.9874 318.6303)" cx="46.997" cy="167.183" rx="2.362" ry="2.979"/>
	
		<ellipse id="XMLID_45_" transform="matrix(-0.7071 -0.7072 0.7072 -0.7071 -44.9588 333.275)" cx="46.551" cy="175.95" rx="2.362" ry="2.978"/>
</g>
<g id="XMLID_87_" opacity="0.05">
	<path id="XMLID_92_" d="M227.427,70.221c0.095-0.638,0.385-1.227,0.845-1.679c0.006-0.006,0.014-0.013,0.021-0.02
		c1.685-1.686,1.28-4.824-0.904-7.009c-2.185-2.185-5.323-2.59-7.009-0.905c-0.007,0.007-0.016,0.015-0.022,0.023
		c-0.451,0.459-1.04,0.749-1.677,0.843c-0.716,0.107-1.405,0.438-1.953,0.996c-1.308,1.331-1.312,3.489-0.009,4.825
		c0.314,0.322,0.675,0.569,1.062,0.742c1.375,0.616,2.469,1.71,3.085,3.085c0.172,0.386,0.419,0.748,0.742,1.062
		c1.336,1.303,3.495,1.298,4.826-0.01C226.99,71.626,227.322,70.937,227.427,70.221L227.427,70.221z"/>
	
		<ellipse id="XMLID_91_" transform="matrix(-0.7071 -0.7071 0.7071 -0.7071 352.2169 255.561)" cx="229.037" cy="54.834" rx="2.362" ry="2.979"/>
	
		<ellipse id="XMLID_90_" transform="matrix(-0.7072 -0.7071 0.7071 -0.7072 336.8425 249.8482)" cx="220.161" cy="55.169" rx="2.362" ry="2.978"/>
	
		<ellipse id="XMLID_89_" transform="matrix(-0.7072 -0.7071 0.7071 -0.7072 357.4848 268.2355)" cx="234.29" cy="60.088" rx="2.362" ry="2.978"/>
	
		<ellipse id="XMLID_88_" transform="matrix(-0.7071 -0.7072 0.7072 -0.7071 350.4938 282.9048)" cx="233.844" cy="68.855" rx="2.362" ry="2.978"/>
</g>
<g id="XMLID_80_" opacity="0.05">
	<path id="XMLID_86_" d="M161.899,99.562c0.095-0.637,0.385-1.227,0.844-1.679c0.007-0.006,0.014-0.013,0.021-0.02
		c1.685-1.686,1.28-4.824-0.904-7.008c-2.185-2.185-5.323-2.59-7.008-0.905c-0.008,0.008-0.016,0.015-0.023,0.023
		c-0.45,0.459-1.04,0.749-1.676,0.844c-0.716,0.106-1.405,0.438-1.953,0.995c-1.308,1.331-1.312,3.489-0.009,4.825
		c0.314,0.322,0.675,0.569,1.062,0.742c1.375,0.615,2.47,1.71,3.085,3.085c0.173,0.387,0.42,0.747,0.742,1.061
		c1.336,1.303,3.495,1.298,4.826-0.01C161.462,100.968,161.793,100.278,161.899,99.562L161.899,99.562z"/>
	
		<ellipse id="XMLID_85_" transform="matrix(-0.7071 -0.7071 0.7071 -0.7071 219.6068 259.3137)" cx="163.509" cy="84.175" rx="2.362" ry="2.978"/>
	
		<ellipse id="XMLID_83_" transform="matrix(-0.7072 -0.7071 0.7071 -0.7072 204.2299 253.6061)" cx="154.633" cy="84.51" rx="2.362" ry="2.978"/>
	
		<ellipse id="XMLID_82_" transform="matrix(-0.7071 -0.7071 0.7071 -0.7071 224.8584 271.9973)" cx="168.762" cy="89.429" rx="2.362" ry="2.979"/>
	
		<ellipse id="XMLID_81_" transform="matrix(-0.7071 -0.7072 0.7072 -0.7071 217.8848 286.6523)" cx="168.316" cy="98.196" rx="2.362" ry="2.978"/>
</g>
<g id="XMLID_74_" opacity="0.05">
	<path id="XMLID_79_" d="M101.75,66.798c0.095-0.638,0.385-1.227,0.844-1.679c0.007-0.007,0.014-0.014,0.021-0.021
		c1.685-1.686,1.28-4.823-0.905-7.008c-2.185-2.186-5.322-2.59-7.008-0.905c-0.008,0.008-0.016,0.016-0.023,0.023
		c-0.45,0.458-1.04,0.749-1.676,0.843c-0.717,0.107-1.405,0.438-1.953,0.995c-1.308,1.332-1.312,3.489-0.009,4.826
		c0.314,0.322,0.675,0.57,1.062,0.742c1.375,0.615,2.47,1.709,3.085,3.085c0.173,0.386,0.42,0.747,0.742,1.061
		c1.336,1.303,3.495,1.298,4.826-0.009C101.312,68.204,101.644,67.514,101.75,66.798L101.75,66.798z"/>
	
		<ellipse id="XMLID_78_" transform="matrix(-0.7071 -0.7071 0.7071 -0.7071 140.0933 160.8503)" cx="103.36" cy="51.411" rx="2.362" ry="2.979"/>
	
		<ellipse id="XMLID_77_" transform="matrix(-0.7072 -0.707 0.707 -0.7072 124.7196 155.1421)" cx="94.484" cy="51.746" rx="2.362" ry="2.979"/>
	
		<ellipse id="XMLID_76_" transform="matrix(-0.7072 -0.7071 0.7071 -0.7072 145.354 173.5314)" cx="108.613" cy="56.665" rx="2.362" ry="2.979"/>
	
		<ellipse id="XMLID_75_" transform="matrix(-0.707 -0.7072 0.7072 -0.707 138.3676 188.1898)" cx="108.167" cy="65.432" rx="2.362" ry="2.979"/>
</g>
<g id="XMLID_68_" opacity="0.05">
	<path id="XMLID_73_" d="M43.557,99.073c0.095-0.638,0.385-1.227,0.844-1.679c0.007-0.006,0.014-0.013,0.021-0.02
		c1.685-1.686,1.28-4.823-0.905-7.008c-2.185-2.185-5.322-2.59-7.008-0.905c-0.007,0.007-0.015,0.015-0.022,0.023
		c-0.45,0.458-1.041,0.749-1.677,0.843c-0.716,0.107-1.405,0.438-1.953,0.995c-1.308,1.332-1.312,3.489-0.009,4.825
		c0.314,0.322,0.675,0.57,1.062,0.742c1.375,0.615,2.47,1.71,3.084,3.085c0.173,0.387,0.42,0.748,0.742,1.062
		c1.336,1.303,3.495,1.298,4.826-0.01C43.119,100.479,43.451,99.789,43.557,99.073L43.557,99.073z"/>
	
		<ellipse id="XMLID_72_" transform="matrix(-0.7071 -0.7071 0.7071 -0.7071 17.9301 174.7985)" cx="45.167" cy="83.686" rx="2.362" ry="2.979"/>
	
		<ellipse id="XMLID_71_" transform="matrix(-0.7072 -0.707 0.707 -0.7072 2.5537 169.0995)" cx="36.291" cy="84.021" rx="2.362" ry="2.979"/>
	
		<ellipse id="XMLID_70_" transform="matrix(-0.7071 -0.7071 0.7071 -0.7071 23.1817 187.4821)" cx="50.42" cy="88.94" rx="2.362" ry="2.979"/>
	
		<ellipse id="XMLID_69_" transform="matrix(-0.7071 -0.7072 0.7072 -0.7071 16.2145 202.1315)" cx="49.974" cy="97.707" rx="2.362" ry="2.978"/>
</g>
<g id="XMLID_183_" opacity="0.05">
	<path id="XMLID_188_" d="M458.553,197.771c0.095-0.638,0.385-1.227,0.845-1.678c0.007-0.007,0.014-0.014,0.021-0.021
		c1.686-1.687,1.28-4.823-0.904-7.009c-2.186-2.186-5.322-2.59-7.008-0.904c-0.008,0.008-0.016,0.016-0.023,0.023
		c-0.45,0.458-1.04,0.748-1.676,0.843c-0.717,0.106-1.405,0.438-1.953,0.995c-1.308,1.332-1.312,3.488-0.01,4.826
		c0.314,0.32,0.676,0.568,1.062,0.741c1.375,0.614,2.469,1.71,3.084,3.085c0.174,0.387,0.42,0.747,0.742,1.062
		c1.336,1.303,3.494,1.298,4.826-0.01C458.115,199.178,458.448,198.488,458.553,197.771L458.553,197.771z"/>
	
		<ellipse id="XMLID_187_" transform="matrix(-0.7071 -0.7071 0.7071 -0.7071 656.5825 636.7349)" cx="460.163" cy="182.385" rx="2.362" ry="2.978"/>
	
		<ellipse id="XMLID_186_" transform="matrix(-0.7071 -0.7071 0.7071 -0.7071 641.1926 631.0321)" cx="451.287" cy="182.721" rx="2.362" ry="2.979"/>
	
		<ellipse id="XMLID_185_" transform="matrix(-0.7071 -0.7071 0.7071 -0.7071 661.8347 649.4182)" cx="465.416" cy="187.639" rx="2.362" ry="2.978"/>
	
		<ellipse id="XMLID_184_" transform="matrix(-0.7071 -0.7071 0.7071 -0.7071 654.8749 664.0706)" cx="464.971" cy="196.406" rx="2.362" ry="2.978"/>
</g>
<g id="XMLID_177_" opacity="0.05">
	<path id="XMLID_182_" d="M393.025,227.113c0.095-0.638,0.386-1.228,0.845-1.68c0.007-0.006,0.014-0.013,0.021-0.02
		c1.684-1.686,1.279-4.824-0.905-7.008c-2.185-2.186-5.323-2.59-7.009-0.905c-0.008,0.007-0.016,0.016-0.021,0.022
		c-0.451,0.459-1.041,0.75-1.678,0.844c-0.716,0.107-1.404,0.438-1.952,0.996c-1.308,1.33-1.312,3.488-0.009,4.824
		c0.314,0.322,0.675,0.569,1.061,0.742c1.375,0.615,2.471,1.71,3.086,3.086c0.172,0.385,0.42,0.747,0.741,1.061
		c1.337,1.303,3.495,1.299,4.826-0.01C392.588,228.519,392.919,227.828,393.025,227.113L393.025,227.113z"/>
	
		<ellipse id="XMLID_181_" transform="matrix(-0.707 -0.7072 0.7072 -0.707 523.9085 640.507)" cx="394.635" cy="211.726" rx="2.362" ry="2.979"/>
	
		<ellipse id="XMLID_180_" transform="matrix(-0.7072 -0.707 0.707 -0.7072 508.645 634.7652)" cx="385.76" cy="212.061" rx="2.362" ry="2.978"/>
	
		<ellipse id="XMLID_179_" transform="matrix(-0.7073 -0.7069 0.7069 -0.7073 529.3505 653.1345)" cx="399.888" cy="216.98" rx="2.362" ry="2.979"/>
	
		<ellipse id="XMLID_178_" transform="matrix(-0.7071 -0.7071 0.7071 -0.7071 522.2623 667.8223)" cx="399.442" cy="225.747" rx="2.362" ry="2.98"/>
</g>
<g id="XMLID_171_" opacity="0.05">
	<path id="XMLID_176_" d="M332.875,194.348c0.096-0.637,0.386-1.227,0.845-1.678c0.007-0.006,0.015-0.014,0.021-0.02
		c1.685-1.687,1.28-4.824-0.905-7.009c-2.185-2.185-5.322-2.591-7.008-0.905c-0.008,0.008-0.016,0.016-0.022,0.023
		c-0.45,0.459-1.04,0.75-1.677,0.844c-0.717,0.107-1.404,0.438-1.953,0.995c-1.307,1.331-1.312,3.489-0.008,4.825
		c0.313,0.322,0.674,0.57,1.061,0.742c1.375,0.615,2.47,1.709,3.085,3.084c0.173,0.387,0.42,0.748,0.741,1.062
		c1.337,1.304,3.495,1.299,4.826-0.009C332.439,195.755,332.77,195.065,332.875,194.348L332.875,194.348z"/>
	
		<ellipse id="XMLID_175_" transform="matrix(-0.7072 -0.707 0.707 -0.7072 444.5114 542.0084)" cx="334.486" cy="178.962" rx="2.362" ry="2.979"/>
	
		<ellipse id="XMLID_174_" transform="matrix(-0.7072 -0.707 0.707 -0.7072 429.1214 536.3049)" cx="325.61" cy="179.297" rx="2.362" ry="2.979"/>
	
		<ellipse id="XMLID_173_" transform="matrix(-0.7071 -0.7071 0.7071 -0.7071 449.7097 554.7075)" cx="339.739" cy="184.216" rx="2.362" ry="2.979"/>
	
		<ellipse id="XMLID_172_" transform="matrix(-0.7069 -0.7073 0.7073 -0.7069 442.6399 569.39)" cx="339.293" cy="192.983" rx="2.362" ry="2.979"/>
</g>
<g id="XMLID_165_" opacity="0.05">
	<path id="XMLID_170_" d="M274.683,226.623c0.095-0.637,0.386-1.227,0.845-1.678c0.006-0.007,0.014-0.014,0.021-0.021
		c1.685-1.686,1.279-4.823-0.906-7.008c-2.184-2.185-5.321-2.591-7.008-0.905c-0.008,0.008-0.015,0.016-0.021,0.023
		c-0.451,0.459-1.041,0.748-1.678,0.843c-0.716,0.107-1.404,0.438-1.952,0.996c-1.308,1.331-1.312,3.488-0.009,4.825
		c0.314,0.321,0.675,0.568,1.061,0.741c1.375,0.616,2.471,1.71,3.085,3.085c0.173,0.387,0.421,0.748,0.742,1.062
		c1.337,1.303,3.495,1.299,4.825-0.01C274.245,228.029,274.577,227.34,274.683,226.623L274.683,226.623z"/>
	
		<ellipse id="XMLID_169_" transform="matrix(-0.7071 -0.7071 0.7071 -0.7071 322.2954 555.9718)" cx="276.293" cy="211.236" rx="2.362" ry="2.978"/>
	
		<ellipse id="XMLID_168_" transform="matrix(-0.7072 -0.707 0.707 -0.7072 306.9559 550.2635)" cx="267.418" cy="211.572" rx="2.362" ry="2.979"/>
	
		<ellipse id="XMLID_167_" transform="matrix(-0.7071 -0.7071 0.7071 -0.7071 327.5476 568.6552)" cx="281.546" cy="216.49" rx="2.362" ry="2.978"/>
	
		<ellipse id="XMLID_166_" transform="matrix(-0.7072 -0.707 0.707 -0.7072 320.6393 583.3013)" cx="281.1" cy="225.258" rx="2.362" ry="2.978"/>
</g>
<g id="XMLID_159_" opacity="0.05">
	<path id="XMLID_164_" d="M483.004,122.463c0.094-0.637,0.385-1.227,0.844-1.678c0.007-0.007,0.014-0.014,0.021-0.021
		c1.685-1.687,1.28-4.823-0.905-7.008c-2.185-2.186-5.321-2.59-7.008-0.905c-0.007,0.008-0.016,0.015-0.022,0.023
		c-0.451,0.459-1.041,0.749-1.677,0.843c-0.716,0.107-1.405,0.438-1.952,0.995c-1.309,1.332-1.312,3.489-0.01,4.825
		c0.314,0.322,0.676,0.569,1.062,0.742c1.374,0.615,2.469,1.71,3.084,3.085c0.173,0.387,0.42,0.748,0.742,1.062
		c1.336,1.303,3.494,1.298,4.826-0.01C482.567,123.869,482.899,123.18,483.004,122.463L483.004,122.463z"/>
	
		<ellipse id="XMLID_163_" transform="matrix(-0.7071 -0.7072 0.7072 -0.7071 751.542 525.4839)" cx="484.614" cy="107.076" rx="2.362" ry="2.978"/>
	
		<ellipse id="XMLID_162_" transform="matrix(-0.7072 -0.707 0.707 -0.7072 736.2444 519.7227)" cx="475.738" cy="107.412" rx="2.362" ry="2.978"/>
	
		<ellipse id="XMLID_161_" transform="matrix(-0.7071 -0.7071 0.7071 -0.7071 756.8263 538.1489)" cx="489.867" cy="112.331" rx="2.362" ry="2.978"/>
	
		<ellipse id="XMLID_160_" transform="matrix(-0.7071 -0.7071 0.7071 -0.7071 749.8668 552.8003)" cx="489.422" cy="121.098" rx="2.362" ry="2.978"/>
</g>
<g id="XMLID_153_" opacity="0.05">
	<path id="XMLID_158_" d="M417.476,151.805c0.095-0.638,0.385-1.227,0.845-1.68c0.006-0.006,0.014-0.013,0.021-0.02
		c1.685-1.686,1.28-4.823-0.905-7.008c-2.185-2.186-5.322-2.59-7.008-0.905c-0.008,0.008-0.016,0.015-0.022,0.022
		c-0.45,0.459-1.04,0.75-1.677,0.844c-0.717,0.107-1.404,0.438-1.952,0.996c-1.308,1.33-1.312,3.488-0.009,4.824
		c0.313,0.322,0.674,0.57,1.061,0.742c1.375,0.615,2.47,1.71,3.085,3.085c0.173,0.387,0.421,0.748,0.742,1.062
		c1.336,1.303,3.495,1.299,4.825-0.01C417.038,153.21,417.37,152.521,417.476,151.805L417.476,151.805z"/>
	
		<ellipse id="XMLID_157_" transform="matrix(-0.7072 -0.707 0.707 -0.7072 619.0194 529.1891)" cx="419.086" cy="136.418" rx="2.362" ry="2.979"/>
	
		<ellipse id="XMLID_156_" transform="matrix(-0.7071 -0.7071 0.7071 -0.7071 603.5732 523.5131)" cx="410.21" cy="136.752" rx="2.362" ry="2.979"/>
	
		<ellipse id="XMLID_155_" transform="matrix(-0.7071 -0.7071 0.7071 -0.7071 624.2134 541.9014)" cx="424.338" cy="141.672" rx="2.362" ry="2.979"/>
	
		<ellipse id="XMLID_154_" transform="matrix(-0.707 -0.7072 0.7072 -0.707 617.1945 556.5811)" cx="423.893" cy="150.439" rx="2.362" ry="2.979"/>
</g>
<g id="XMLID_147_" opacity="0.05">
	<path id="XMLID_152_" d="M357.326,119.04c0.096-0.638,0.385-1.227,0.845-1.679c0.007-0.007,0.014-0.013,0.021-0.02
		c1.686-1.686,1.28-4.823-0.904-7.008c-2.186-2.186-5.322-2.59-7.008-0.905c-0.008,0.007-0.016,0.015-0.023,0.022
		c-0.449,0.459-1.04,0.75-1.676,0.844c-0.717,0.106-1.405,0.438-1.953,0.995c-1.308,1.332-1.312,3.489-0.009,4.825
		c0.313,0.322,0.675,0.57,1.062,0.742c1.375,0.615,2.469,1.709,3.084,3.085c0.174,0.386,0.421,0.747,0.742,1.062
		c1.336,1.303,3.495,1.298,4.826-0.01C356.889,120.446,357.221,119.757,357.326,119.04L357.326,119.04z"/>
	
		<ellipse id="XMLID_151_" transform="matrix(-0.7072 -0.7071 0.7071 -0.7072 539.4724 430.7408)" cx="358.936" cy="103.654" rx="2.362" ry="2.979"/>
	
		<ellipse id="XMLID_150_" transform="matrix(-0.7071 -0.7071 0.7071 -0.7071 524.0599 425.0503)" cx="350.061" cy="103.989" rx="2.362" ry="2.98"/>
	
		<ellipse id="XMLID_149_" transform="matrix(-0.7071 -0.7071 0.7071 -0.7071 544.7017 443.4373)" cx="364.19" cy="108.907" rx="2.362" ry="2.978"/>
	
		<ellipse id="XMLID_148_" transform="matrix(-0.707 -0.7072 0.7072 -0.707 537.6924 458.1142)" cx="363.744" cy="117.674" rx="2.362" ry="2.978"/>
</g>
<g id="XMLID_141_" opacity="0.05">
	<path id="XMLID_146_" d="M299.134,151.314c0.095-0.637,0.385-1.227,0.845-1.678c0.006-0.007,0.014-0.014,0.021-0.021
		c1.685-1.686,1.28-4.823-0.905-7.008c-2.185-2.185-5.322-2.591-7.008-0.905c-0.008,0.008-0.016,0.016-0.022,0.023
		c-0.45,0.459-1.04,0.749-1.677,0.844c-0.717,0.106-1.404,0.438-1.953,0.994c-1.307,1.332-1.312,3.49-0.009,4.826
		c0.314,0.321,0.676,0.569,1.062,0.742c1.375,0.614,2.47,1.709,3.084,3.084c0.174,0.387,0.422,0.748,0.743,1.062
		c1.336,1.303,3.495,1.298,4.825-0.009C298.697,152.721,299.029,152.031,299.134,151.314L299.134,151.314z"/>
	
		<ellipse id="XMLID_145_" transform="matrix(-0.7071 -0.7071 0.7071 -0.7071 417.2867 444.7032)" cx="300.744" cy="135.929" rx="2.362" ry="2.978"/>
	
		<ellipse id="XMLID_144_" transform="matrix(-0.7072 -0.707 0.707 -0.7072 401.941 438.9824)" cx="291.868" cy="136.264" rx="2.362" ry="2.979"/>
	
		<ellipse id="XMLID_143_" transform="matrix(-0.7071 -0.7071 0.7071 -0.7071 422.5372 457.3859)" cx="305.996" cy="141.183" rx="2.362" ry="2.98"/>
	
		<ellipse id="XMLID_142_" transform="matrix(-0.707 -0.7072 0.7072 -0.707 415.5307 472.0534)" cx="305.551" cy="149.95" rx="2.362" ry="2.978"/>
</g>
<g id="XMLID_135_" opacity="0.05">
	<path id="XMLID_140_" d="M483.004,122.463c0.094-0.637,0.385-1.227,0.844-1.678c0.007-0.007,0.014-0.014,0.021-0.021
		c1.685-1.687,1.28-4.823-0.905-7.008c-2.185-2.186-5.321-2.59-7.008-0.905c-0.007,0.008-0.016,0.015-0.022,0.023
		c-0.451,0.459-1.041,0.749-1.677,0.843c-0.716,0.107-1.405,0.438-1.952,0.995c-1.309,1.332-1.312,3.489-0.01,4.825
		c0.314,0.322,0.676,0.569,1.062,0.742c1.374,0.615,2.469,1.71,3.084,3.085c0.173,0.387,0.42,0.748,0.742,1.062
		c1.336,1.303,3.494,1.298,4.826-0.01C482.567,123.869,482.899,123.18,483.004,122.463L483.004,122.463z"/>
	
		<ellipse id="XMLID_139_" transform="matrix(-0.7071 -0.7072 0.7072 -0.7071 751.542 525.4839)" cx="484.614" cy="107.076" rx="2.362" ry="2.978"/>
	
		<ellipse id="XMLID_138_" transform="matrix(-0.7072 -0.707 0.707 -0.7072 736.2444 519.7227)" cx="475.738" cy="107.412" rx="2.362" ry="2.978"/>
	
		<ellipse id="XMLID_137_" transform="matrix(-0.7071 -0.7071 0.7071 -0.7071 756.8263 538.1489)" cx="489.867" cy="112.331" rx="2.362" ry="2.978"/>
	
		<ellipse id="XMLID_136_" transform="matrix(-0.7071 -0.7071 0.7071 -0.7071 749.8668 552.8003)" cx="489.422" cy="121.098" rx="2.362" ry="2.978"/>
</g>
<g id="XMLID_129_" opacity="0.05">
	<path id="XMLID_134_" d="M417.476,151.805c0.095-0.638,0.385-1.227,0.845-1.68c0.006-0.006,0.014-0.013,0.021-0.02
		c1.685-1.686,1.28-4.823-0.905-7.008c-2.185-2.186-5.322-2.59-7.008-0.905c-0.008,0.008-0.016,0.015-0.022,0.022
		c-0.45,0.459-1.04,0.75-1.677,0.844c-0.717,0.107-1.404,0.438-1.952,0.996c-1.308,1.33-1.312,3.488-0.009,4.824
		c0.313,0.322,0.674,0.57,1.061,0.742c1.375,0.615,2.47,1.71,3.085,3.085c0.173,0.387,0.421,0.748,0.742,1.062
		c1.336,1.303,3.495,1.299,4.825-0.01C417.038,153.21,417.37,152.521,417.476,151.805L417.476,151.805z"/>
	
		<ellipse id="XMLID_133_" transform="matrix(-0.7072 -0.707 0.707 -0.7072 619.0194 529.1891)" cx="419.086" cy="136.418" rx="2.362" ry="2.979"/>
	
		<ellipse id="XMLID_132_" transform="matrix(-0.7071 -0.7071 0.7071 -0.7071 603.5732 523.5131)" cx="410.21" cy="136.752" rx="2.362" ry="2.979"/>
	
		<ellipse id="XMLID_131_" transform="matrix(-0.7071 -0.7071 0.7071 -0.7071 624.2134 541.9014)" cx="424.338" cy="141.672" rx="2.362" ry="2.979"/>
	
		<ellipse id="XMLID_130_" transform="matrix(-0.707 -0.7072 0.7072 -0.707 617.1945 556.5811)" cx="423.893" cy="150.439" rx="2.362" ry="2.979"/>
</g>
<g id="XMLID_123_" opacity="0.05">
	<path id="XMLID_128_" d="M357.326,119.04c0.096-0.638,0.385-1.227,0.845-1.679c0.007-0.007,0.014-0.013,0.021-0.02
		c1.686-1.686,1.28-4.823-0.904-7.008c-2.186-2.186-5.322-2.59-7.008-0.905c-0.008,0.007-0.016,0.015-0.023,0.022
		c-0.449,0.459-1.04,0.75-1.676,0.844c-0.717,0.106-1.405,0.438-1.953,0.995c-1.308,1.332-1.312,3.489-0.009,4.825
		c0.313,0.322,0.675,0.57,1.062,0.742c1.375,0.615,2.469,1.709,3.084,3.085c0.174,0.386,0.421,0.747,0.742,1.062
		c1.336,1.303,3.495,1.298,4.826-0.01C356.889,120.446,357.221,119.757,357.326,119.04L357.326,119.04z"/>
	
		<ellipse id="XMLID_127_" transform="matrix(-0.7072 -0.7071 0.7071 -0.7072 539.4724 430.7408)" cx="358.936" cy="103.654" rx="2.362" ry="2.979"/>
	
		<ellipse id="XMLID_126_" transform="matrix(-0.7071 -0.7071 0.7071 -0.7071 524.0599 425.0503)" cx="350.061" cy="103.989" rx="2.362" ry="2.98"/>
	
		<ellipse id="XMLID_125_" transform="matrix(-0.7071 -0.7071 0.7071 -0.7071 544.7017 443.4373)" cx="364.19" cy="108.907" rx="2.362" ry="2.978"/>
	
		<ellipse id="XMLID_124_" transform="matrix(-0.707 -0.7072 0.7072 -0.707 537.6924 458.1142)" cx="363.744" cy="117.674" rx="2.362" ry="2.978"/>
</g>
<g id="XMLID_117_" opacity="0.05">
	<path id="XMLID_122_" d="M299.134,151.314c0.095-0.637,0.385-1.227,0.845-1.678c0.006-0.007,0.014-0.014,0.021-0.021
		c1.685-1.686,1.28-4.823-0.905-7.008c-2.185-2.185-5.322-2.591-7.008-0.905c-0.008,0.008-0.016,0.016-0.022,0.023
		c-0.45,0.459-1.04,0.749-1.677,0.844c-0.717,0.106-1.404,0.438-1.953,0.994c-1.307,1.332-1.312,3.49-0.009,4.826
		c0.314,0.321,0.676,0.569,1.062,0.742c1.375,0.614,2.47,1.709,3.084,3.084c0.174,0.387,0.422,0.748,0.743,1.062
		c1.336,1.303,3.495,1.298,4.825-0.009C298.697,152.721,299.029,152.031,299.134,151.314L299.134,151.314z"/>
	
		<ellipse id="XMLID_121_" transform="matrix(-0.7071 -0.7071 0.7071 -0.7071 417.2867 444.7032)" cx="300.744" cy="135.929" rx="2.362" ry="2.978"/>
	
		<ellipse id="XMLID_120_" transform="matrix(-0.7072 -0.707 0.707 -0.7072 401.941 438.9824)" cx="291.868" cy="136.264" rx="2.362" ry="2.979"/>
	
		<ellipse id="XMLID_119_" transform="matrix(-0.7071 -0.7071 0.7071 -0.7071 422.5372 457.3859)" cx="305.996" cy="141.183" rx="2.362" ry="2.98"/>
	
		<ellipse id="XMLID_118_" transform="matrix(-0.707 -0.7072 0.7072 -0.707 415.5307 472.0534)" cx="305.551" cy="149.95" rx="2.362" ry="2.978"/>
</g>
<g id="XMLID_111_" opacity="0.05">
	<path id="XMLID_116_" d="M486.427,44.221c0.095-0.638,0.386-1.227,0.845-1.679c0.006-0.006,0.014-0.013,0.021-0.02
		c1.685-1.686,1.28-4.824-0.904-7.009s-5.323-2.59-7.009-0.905c-0.008,0.007-0.016,0.015-0.022,0.023
		c-0.45,0.459-1.04,0.749-1.677,0.843c-0.716,0.107-1.404,0.438-1.953,0.996c-1.307,1.331-1.311,3.489-0.008,4.825
		c0.313,0.322,0.674,0.569,1.061,0.742c1.375,0.616,2.47,1.71,3.086,3.085c0.172,0.386,0.419,0.748,0.741,1.062
		c1.336,1.303,3.495,1.298,4.825-0.01C485.99,45.626,486.322,44.937,486.427,44.221L486.427,44.221z"/>
	
		<ellipse id="XMLID_115_" transform="matrix(-0.7071 -0.7071 0.7071 -0.7071 812.7432 394.3172)" cx="488.037" cy="28.834" rx="2.362" ry="2.978"/>
	
		<ellipse id="XMLID_114_" transform="matrix(-0.7072 -0.707 0.707 -0.7072 797.4058 388.5659)" cx="479.161" cy="29.169" rx="2.362" ry="2.979"/>
	
		<ellipse id="XMLID_113_" transform="matrix(-0.7072 -0.707 0.707 -0.7072 818.0491 406.9528)" cx="493.29" cy="34.088" rx="2.362" ry="2.978"/>
	
		<ellipse id="XMLID_112_" transform="matrix(-0.7071 -0.7072 0.7072 -0.7071 811.0063 421.675)" cx="492.844" cy="42.855" rx="2.362" ry="2.978"/>
</g>
<g id="XMLID_105_" opacity="0.05">
	<path id="XMLID_110_" d="M420.899,73.562c0.095-0.637,0.385-1.227,0.844-1.679c0.008-0.006,0.015-0.013,0.021-0.02
		c1.686-1.686,1.28-4.824-0.904-7.008c-2.186-2.185-5.322-2.59-7.008-0.905c-0.008,0.008-0.016,0.015-0.023,0.023
		c-0.45,0.459-1.04,0.749-1.676,0.844c-0.717,0.106-1.405,0.438-1.953,0.995c-1.308,1.331-1.312,3.489-0.01,4.825
		c0.314,0.322,0.676,0.569,1.062,0.742c1.375,0.615,2.469,1.71,3.084,3.085c0.174,0.387,0.42,0.747,0.742,1.061
		c1.336,1.303,3.494,1.298,4.826-0.01C420.461,74.968,420.793,74.278,420.899,73.562L420.899,73.562z"/>
	
		<ellipse id="XMLID_109_" transform="matrix(-0.7071 -0.7071 0.7071 -0.7071 680.1322 398.0696)" cx="422.509" cy="58.175" rx="2.362" ry="2.978"/>
	
		<ellipse id="XMLID_108_" transform="matrix(-0.7071 -0.7072 0.7072 -0.7071 664.7185 392.3839)" cx="413.633" cy="58.51" rx="2.362" ry="2.978"/>
	
		<ellipse id="XMLID_107_" transform="matrix(-0.7071 -0.7072 0.7072 -0.7071 685.3589 410.7722)" cx="427.762" cy="63.429" rx="2.362" ry="2.978"/>
	
		<ellipse id="XMLID_106_" transform="matrix(-0.7071 -0.7072 0.7072 -0.7071 678.399 425.4232)" cx="427.317" cy="72.196" rx="2.362" ry="2.978"/>
</g>
<g id="XMLID_99_" opacity="0.05">
	<path id="XMLID_104_" d="M360.75,40.798c0.094-0.638,0.385-1.227,0.844-1.679c0.007-0.007,0.014-0.014,0.021-0.021
		c1.685-1.686,1.279-4.823-0.905-7.008c-2.185-2.186-5.322-2.59-7.008-0.905c-0.008,0.008-0.016,0.016-0.022,0.023
		c-0.451,0.458-1.041,0.749-1.677,0.843c-0.717,0.107-1.405,0.438-1.952,0.995c-1.309,1.332-1.312,3.489-0.01,4.826
		c0.314,0.322,0.676,0.57,1.062,0.742c1.375,0.615,2.47,1.709,3.085,3.085c0.173,0.386,0.42,0.747,0.742,1.061
		c1.336,1.303,3.494,1.298,4.826-0.009C360.313,42.204,360.645,41.514,360.75,40.798L360.75,40.798z"/>
	
		<ellipse id="XMLID_103_" transform="matrix(-0.7071 -0.7072 0.7072 -0.7071 600.5983 299.6235)" cx="362.36" cy="25.411" rx="2.362" ry="2.978"/>
	
		<ellipse id="XMLID_102_" transform="matrix(-0.7072 -0.707 0.707 -0.7072 585.2691 293.8685)" cx="353.484" cy="25.746" rx="2.362" ry="2.978"/>
	
		<ellipse id="XMLID_101_" transform="matrix(-0.7072 -0.707 0.707 -0.7072 605.9124 312.2553)" cx="367.613" cy="30.665" rx="2.362" ry="2.979"/>
	
		<ellipse id="XMLID_100_" transform="matrix(-0.707 -0.7072 0.7072 -0.707 598.869 326.9752)" cx="367.167" cy="39.432" rx="2.362" ry="2.979"/>
</g>
<g id="XMLID_93_" opacity="0.05">
	<path id="XMLID_98_" d="M302.557,73.073c0.095-0.638,0.385-1.227,0.844-1.679c0.008-0.006,0.015-0.013,0.021-0.02
		c1.686-1.686,1.28-4.823-0.904-7.008c-2.186-2.185-5.322-2.59-7.009-0.905c-0.007,0.007-0.015,0.015-0.022,0.023
		c-0.449,0.458-1.041,0.749-1.676,0.843c-0.717,0.107-1.406,0.438-1.953,0.995c-1.308,1.332-1.312,3.489-0.01,4.825
		c0.314,0.322,0.676,0.57,1.062,0.742c1.375,0.615,2.469,1.71,3.084,3.085c0.173,0.387,0.42,0.748,0.742,1.062
		c1.336,1.303,3.494,1.298,4.826-0.01C302.119,74.479,302.451,73.789,302.557,73.073L302.557,73.073z"/>
	
		<ellipse id="XMLID_97_" transform="matrix(-0.7072 -0.7071 0.7071 -0.7072 478.4738 313.5414)" cx="304.167" cy="57.686" rx="2.362" ry="2.979"/>
	
		<ellipse id="XMLID_96_" transform="matrix(-0.7071 -0.7071 0.7071 -0.7071 463.0667 307.8505)" cx="295.291" cy="58.021" rx="2.362" ry="2.979"/>
	
		<ellipse id="XMLID_95_" transform="matrix(-0.7071 -0.7071 0.7071 -0.7071 483.708 326.2383)" cx="309.42" cy="62.94" rx="2.362" ry="2.978"/>
	
		<ellipse id="XMLID_94_" transform="matrix(-0.7071 -0.7072 0.7072 -0.7071 476.7287 340.9025)" cx="308.975" cy="71.707" rx="2.362" ry="2.978"/>
</g>
<g id="XMLID_280_" opacity="0.05">
	<path id="XMLID_285_" d="M208.089,460.516c0.095-0.639,0.385-1.227,0.845-1.678c0.007-0.008,0.014-0.014,0.021-0.021
		c1.686-1.686,1.28-4.822-0.904-7.008c-2.186-2.186-5.322-2.59-7.008-0.904c-0.008,0.008-0.016,0.016-0.023,0.023
		c-0.45,0.457-1.04,0.748-1.676,0.842c-0.717,0.107-1.405,0.439-1.953,0.996c-1.308,1.332-1.312,3.488-0.01,4.826
		c0.314,0.32,0.676,0.568,1.062,0.74c1.375,0.615,2.469,1.711,3.084,3.086c0.174,0.387,0.42,0.746,0.742,1.061
		c1.336,1.303,3.494,1.299,4.826-0.01C207.652,461.922,207.984,461.232,208.089,460.516L208.089,460.516z"/>
	
		<ellipse id="XMLID_284_" transform="matrix(-0.7071 -0.7071 0.7071 -0.7071 43.2257 908.1625)" cx="209.699" cy="445.129" rx="2.362" ry="2.979"/>
	
		<ellipse id="XMLID_283_" transform="matrix(-0.7071 -0.7071 0.7071 -0.7071 27.8359 902.4597)" cx="200.823" cy="445.465" rx="2.362" ry="2.98"/>
	
		<ellipse id="XMLID_282_" transform="matrix(-0.7071 -0.7071 0.7071 -0.7071 48.4779 920.8458)" cx="214.952" cy="450.383" rx="2.362" ry="2.978"/>
	
		<ellipse id="XMLID_281_" transform="matrix(-0.7071 -0.7071 0.7071 -0.7071 41.5182 935.4982)" cx="214.507" cy="459.15" rx="2.362" ry="2.978"/>
</g>
<g id="XMLID_274_" opacity="0.05">
	<path id="XMLID_279_" d="M142.561,489.857c0.095-0.639,0.386-1.229,0.845-1.68c0.007-0.006,0.014-0.014,0.021-0.02
		c1.684-1.686,1.279-4.824-0.905-7.008c-2.185-2.186-5.323-2.59-7.009-0.906c-0.008,0.008-0.016,0.016-0.021,0.023
		c-0.451,0.459-1.041,0.75-1.678,0.844c-0.716,0.107-1.404,0.438-1.952,0.996c-1.308,1.33-1.312,3.488-0.009,4.824
		c0.314,0.322,0.675,0.568,1.061,0.742c1.375,0.615,2.471,1.709,3.086,3.086c0.172,0.385,0.42,0.746,0.741,1.061
		c1.337,1.303,3.495,1.299,4.826-0.01C142.124,491.262,142.455,490.572,142.561,489.857L142.561,489.857z"/>
	
		<ellipse id="XMLID_278_" transform="matrix(-0.7069 -0.7073 0.7073 -0.7069 -89.5131 911.8466)" cx="144.171" cy="474.47" rx="2.362" ry="2.978"/>
	
		<ellipse id="XMLID_277_" transform="matrix(-0.7072 -0.707 0.707 -0.7072 -104.7104 906.2458)" cx="135.296" cy="474.805" rx="2.362" ry="2.978"/>
	
		<ellipse id="XMLID_276_" transform="matrix(-0.7073 -0.7069 0.7069 -0.7073 -84.0036 924.6682)" cx="149.424" cy="479.725" rx="2.362" ry="2.98"/>
	
		<ellipse id="XMLID_275_" transform="matrix(-0.7071 -0.7071 0.7071 -0.7071 -91.0938 939.2482)" cx="148.978" cy="488.49" rx="2.362" ry="2.979"/>
</g>
<g id="XMLID_268_" opacity="0.05">
	<path id="XMLID_273_" d="M82.411,457.092c0.096-0.637,0.386-1.227,0.845-1.678c0.007-0.006,0.015-0.014,0.021-0.02
		c1.685-1.688,1.28-4.824-0.905-7.01c-2.185-2.184-5.322-2.59-7.008-0.904c-0.008,0.008-0.016,0.016-0.022,0.023
		c-0.45,0.459-1.04,0.75-1.677,0.844c-0.717,0.107-1.404,0.438-1.953,0.994c-1.307,1.332-1.312,3.49-0.008,4.826
		c0.313,0.322,0.674,0.57,1.061,0.742c1.375,0.615,2.47,1.709,3.085,3.084c0.173,0.387,0.42,0.748,0.741,1.061
		c1.337,1.305,3.495,1.299,4.826-0.008C81.975,458.498,82.306,457.809,82.411,457.092L82.411,457.092z"/>
	
		<ellipse id="XMLID_272_" transform="matrix(-0.7072 -0.707 0.707 -0.7072 -168.8434 813.4874)" cx="84.022" cy="441.705" rx="2.362" ry="2.978"/>
	
		<ellipse id="XMLID_271_" transform="matrix(-0.7072 -0.707 0.707 -0.7072 -184.2341 807.7855)" cx="75.146" cy="442.041" rx="2.362" ry="2.979"/>
	
		<ellipse id="XMLID_270_" transform="matrix(-0.7071 -0.7071 0.7071 -0.7071 -163.6464 826.1334)" cx="89.275" cy="446.959" rx="2.362" ry="2.978"/>
	
		<ellipse id="XMLID_269_" transform="matrix(-0.7069 -0.7073 0.7073 -0.7069 -170.7194 840.7115)" cx="88.829" cy="455.728" rx="2.362" ry="2.979"/>
</g>
<g id="XMLID_262_" opacity="0.05">
	<path id="XMLID_267_" d="M24.219,489.367c0.095-0.637,0.386-1.227,0.845-1.678c0.006-0.008,0.014-0.014,0.021-0.021
		c1.685-1.686,1.279-4.822-0.906-7.008c-2.184-2.184-5.321-2.59-7.008-0.904c-0.008,0.008-0.015,0.016-0.021,0.023
		c-0.451,0.459-1.041,0.748-1.678,0.842c-0.716,0.107-1.404,0.439-1.952,0.996c-1.308,1.332-1.312,3.488-0.009,4.826
		c0.314,0.32,0.675,0.568,1.061,0.74c1.375,0.617,2.471,1.711,3.085,3.086c0.173,0.387,0.421,0.748,0.742,1.061
		c1.337,1.303,3.495,1.299,4.825-0.01C23.781,490.773,24.114,490.084,24.219,489.367L24.219,489.367z"/>
	
		<ellipse id="XMLID_266_" transform="matrix(-0.7071 -0.7071 0.7071 -0.7071 -291.0613 827.3994)" cx="25.829" cy="473.98" rx="2.362" ry="2.978"/>
	
		<ellipse id="XMLID_265_" transform="matrix(-0.7072 -0.707 0.707 -0.7072 -306.3995 821.7442)" cx="16.954" cy="474.316" rx="2.362" ry="2.979"/>
	
		<ellipse id="XMLID_264_" transform="matrix(-0.7071 -0.7071 0.7071 -0.7071 -285.8091 840.0828)" cx="31.082" cy="479.234" rx="2.362" ry="2.978"/>
	
		<ellipse id="XMLID_263_" transform="matrix(-0.7072 -0.707 0.707 -0.7072 -292.7162 854.782)" cx="30.636" cy="488.002" rx="2.362" ry="2.978"/>
</g>
<g id="XMLID_256_" opacity="0.05">
	<path id="XMLID_261_" d="M232.54,385.207c0.094-0.637,0.385-1.227,0.844-1.678c0.007-0.008,0.014-0.014,0.021-0.021
		c1.685-1.686,1.28-4.822-0.905-7.008c-2.185-2.186-5.321-2.59-7.008-0.904c-0.007,0.008-0.016,0.015-0.022,0.022
		c-0.451,0.459-1.041,0.749-1.677,0.843c-0.716,0.107-1.405,0.439-1.952,0.996c-1.309,1.331-1.312,3.488-0.01,4.824
		c0.314,0.322,0.676,0.57,1.062,0.742c1.374,0.615,2.469,1.711,3.084,3.086c0.173,0.387,0.42,0.748,0.742,1.061
		c1.336,1.303,3.494,1.299,4.826-0.01C232.103,386.613,232.435,385.924,232.54,385.207L232.54,385.207z"/>
	
		<ellipse id="XMLID_260_" transform="matrix(-0.7071 -0.7071 0.7071 -0.7071 138.216 796.8915)" cx="234.15" cy="369.82" rx="2.362" ry="2.979"/>
	
		<ellipse id="XMLID_259_" transform="matrix(-0.7072 -0.707 0.707 -0.7072 122.8893 791.2025)" cx="225.274" cy="370.155" rx="2.362" ry="2.979"/>
	
		<ellipse id="XMLID_258_" transform="matrix(-0.7071 -0.7071 0.7071 -0.7071 143.4699 809.5756)" cx="239.404" cy="375.074" rx="2.362" ry="2.978"/>
	
		<ellipse id="XMLID_257_" transform="matrix(-0.7071 -0.7071 0.7071 -0.7071 136.5101 824.2279)" cx="238.958" cy="383.842" rx="2.362" ry="2.978"/>
</g>
<g id="XMLID_250_" opacity="0.05">
	<path id="XMLID_255_" d="M167.012,414.549c0.095-0.639,0.385-1.227,0.845-1.68c0.006-0.006,0.014-0.014,0.021-0.02
		c1.685-1.686,1.28-4.824-0.905-7.008c-2.185-2.186-5.322-2.59-7.008-0.906c-0.008,0.008-0.016,0.016-0.022,0.023
		c-0.45,0.459-1.04,0.75-1.677,0.844c-0.717,0.107-1.404,0.438-1.952,0.996c-1.308,1.33-1.312,3.488-0.009,4.824
		c0.313,0.322,0.674,0.57,1.061,0.742c1.375,0.615,2.47,1.709,3.085,3.084c0.173,0.387,0.421,0.748,0.742,1.062
		c1.336,1.303,3.495,1.299,4.825-0.01C166.574,415.953,166.906,415.264,167.012,414.549L167.012,414.549z"/>
	
		<ellipse id="XMLID_254_" transform="matrix(-0.7072 -0.707 0.707 -0.7072 5.6639 800.6698)" cx="168.622" cy="399.162" rx="2.362" ry="2.979"/>
	
		<ellipse id="XMLID_253_" transform="matrix(-0.7072 -0.707 0.707 -0.7072 -9.7254 794.9646)" cx="159.746" cy="399.496" rx="2.362" ry="2.979"/>
	
		<ellipse id="XMLID_252_" transform="matrix(-0.7071 -0.7071 0.7071 -0.7071 10.8566 813.329)" cx="173.874" cy="404.416" rx="2.362" ry="2.98"/>
	
		<ellipse id="XMLID_251_" transform="matrix(-0.7069 -0.7073 0.7073 -0.7069 3.7763 827.9301)" cx="173.429" cy="413.183" rx="2.362" ry="2.979"/>
</g>
<g id="XMLID_244_" opacity="0.05">
	<path id="XMLID_249_" d="M106.863,381.783c0.096-0.637,0.385-1.227,0.845-1.678c0.007-0.008,0.014-0.014,0.021-0.021
		c1.686-1.686,1.28-4.823-0.904-7.008c-2.186-2.186-5.322-2.591-7.008-0.905c-0.008,0.008-0.016,0.016-0.023,0.023
		c-0.449,0.459-1.04,0.749-1.676,0.844c-0.717,0.105-1.405,0.438-1.953,0.994c-1.308,1.332-1.312,3.489-0.009,4.826
		c0.313,0.321,0.675,0.569,1.062,0.742c1.375,0.614,2.469,1.709,3.084,3.084c0.174,0.387,0.421,0.748,0.742,1.062
		c1.336,1.303,3.495,1.297,4.826-0.01C106.425,383.189,106.757,382.5,106.863,381.783L106.863,381.783z"/>
	
		<ellipse id="XMLID_248_" transform="matrix(-0.7071 -0.7071 0.7071 -0.7071 -73.9078 702.1803)" cx="108.472" cy="366.397" rx="2.362" ry="2.979"/>
	
		<ellipse id="XMLID_247_" transform="matrix(-0.7071 -0.7071 0.7071 -0.7071 -89.2964 696.4771)" cx="99.597" cy="366.732" rx="2.362" ry="2.98"/>
	
		<ellipse id="XMLID_246_" transform="matrix(-0.7071 -0.7071 0.7071 -0.7071 -68.6544 714.8632)" cx="113.726" cy="371.65" rx="2.362" ry="2.978"/>
	
		<ellipse id="XMLID_245_" transform="matrix(-0.7071 -0.7071 0.7071 -0.7071 -75.6142 729.5155)" cx="113.281" cy="380.418" rx="2.362" ry="2.978"/>
</g>
<g id="XMLID_238_" opacity="0.05">
	<path id="XMLID_243_" d="M48.67,414.059c0.095-0.637,0.385-1.227,0.845-1.678c0.006-0.008,0.014-0.014,0.021-0.021
		c1.685-1.686,1.28-4.822-0.905-7.008c-2.185-2.184-5.322-2.59-7.008-0.904c-0.008,0.008-0.016,0.016-0.022,0.023
		c-0.45,0.459-1.04,0.748-1.677,0.844c-0.717,0.105-1.404,0.438-1.953,0.994c-1.307,1.332-1.312,3.49-0.009,4.826
		c0.314,0.32,0.676,0.568,1.062,0.742c1.375,0.613,2.47,1.709,3.084,3.084c0.174,0.387,0.422,0.748,0.743,1.061
		c1.336,1.303,3.495,1.299,4.825-0.008C48.233,415.465,48.565,414.775,48.67,414.059L48.67,414.059z"/>
	
		<ellipse id="XMLID_242_" transform="matrix(-0.7071 -0.7071 0.7071 -0.7071 -196.0694 716.1292)" cx="50.281" cy="398.672" rx="2.362" ry="2.978"/>
	
		<ellipse id="XMLID_241_" transform="matrix(-0.7072 -0.707 0.707 -0.7072 -211.4145 710.463)" cx="41.404" cy="399.008" rx="2.362" ry="2.98"/>
	
		<ellipse id="XMLID_240_" transform="matrix(-0.7071 -0.7071 0.7071 -0.7071 -190.8188 728.8118)" cx="55.532" cy="403.926" rx="2.362" ry="2.979"/>
	
		<ellipse id="XMLID_239_" transform="matrix(-0.7071 -0.7071 0.7071 -0.7071 -197.7786 743.4641)" cx="55.087" cy="412.693" rx="2.362" ry="2.978"/>
</g>
<g id="XMLID_232_" opacity="0.05">
	<path id="XMLID_237_" d="M232.54,385.207c0.094-0.637,0.385-1.227,0.844-1.678c0.007-0.008,0.014-0.014,0.021-0.021
		c1.685-1.686,1.28-4.822-0.905-7.008c-2.185-2.186-5.321-2.59-7.008-0.904c-0.007,0.008-0.016,0.015-0.022,0.022
		c-0.451,0.459-1.041,0.749-1.677,0.843c-0.716,0.107-1.405,0.439-1.952,0.996c-1.309,1.331-1.312,3.488-0.01,4.824
		c0.314,0.322,0.676,0.57,1.062,0.742c1.374,0.615,2.469,1.711,3.084,3.086c0.173,0.387,0.42,0.748,0.742,1.061
		c1.336,1.303,3.494,1.299,4.826-0.01C232.103,386.613,232.435,385.924,232.54,385.207L232.54,385.207z"/>
	
		<ellipse id="XMLID_236_" transform="matrix(-0.7071 -0.7071 0.7071 -0.7071 138.216 796.8915)" cx="234.15" cy="369.82" rx="2.362" ry="2.979"/>
	
		<ellipse id="XMLID_235_" transform="matrix(-0.7072 -0.707 0.707 -0.7072 122.8893 791.2025)" cx="225.274" cy="370.155" rx="2.362" ry="2.979"/>
	
		<ellipse id="XMLID_234_" transform="matrix(-0.7071 -0.7071 0.7071 -0.7071 143.4699 809.5756)" cx="239.404" cy="375.074" rx="2.362" ry="2.978"/>
	
		<ellipse id="XMLID_233_" transform="matrix(-0.7071 -0.7071 0.7071 -0.7071 136.5101 824.2279)" cx="238.958" cy="383.842" rx="2.362" ry="2.978"/>
</g>
<g id="XMLID_226_" opacity="0.05">
	<path id="XMLID_231_" d="M167.012,414.549c0.095-0.639,0.385-1.227,0.845-1.68c0.006-0.006,0.014-0.014,0.021-0.02
		c1.685-1.686,1.28-4.824-0.905-7.008c-2.185-2.186-5.322-2.59-7.008-0.906c-0.008,0.008-0.016,0.016-0.022,0.023
		c-0.45,0.459-1.04,0.75-1.677,0.844c-0.717,0.107-1.404,0.438-1.952,0.996c-1.308,1.33-1.312,3.488-0.009,4.824
		c0.313,0.322,0.674,0.57,1.061,0.742c1.375,0.615,2.47,1.709,3.085,3.084c0.173,0.387,0.421,0.748,0.742,1.062
		c1.336,1.303,3.495,1.299,4.825-0.01C166.574,415.953,166.906,415.264,167.012,414.549L167.012,414.549z"/>
	
		<ellipse id="XMLID_230_" transform="matrix(-0.7072 -0.707 0.707 -0.7072 5.6639 800.6698)" cx="168.622" cy="399.162" rx="2.362" ry="2.979"/>
	
		<ellipse id="XMLID_229_" transform="matrix(-0.7072 -0.707 0.707 -0.7072 -9.7254 794.9646)" cx="159.746" cy="399.496" rx="2.362" ry="2.979"/>
	
		<ellipse id="XMLID_228_" transform="matrix(-0.7071 -0.7071 0.7071 -0.7071 10.8566 813.329)" cx="173.874" cy="404.416" rx="2.362" ry="2.98"/>
	
		<ellipse id="XMLID_227_" transform="matrix(-0.7069 -0.7073 0.7073 -0.7069 3.7763 827.9301)" cx="173.429" cy="413.183" rx="2.362" ry="2.979"/>
</g>
<g id="XMLID_220_" opacity="0.05">
	<path id="XMLID_225_" d="M106.863,381.783c0.096-0.637,0.385-1.227,0.845-1.678c0.007-0.008,0.014-0.014,0.021-0.021
		c1.686-1.686,1.28-4.823-0.904-7.008c-2.186-2.186-5.322-2.591-7.008-0.905c-0.008,0.008-0.016,0.016-0.023,0.023
		c-0.449,0.459-1.04,0.749-1.676,0.844c-0.717,0.105-1.405,0.438-1.953,0.994c-1.308,1.332-1.312,3.489-0.009,4.826
		c0.313,0.321,0.675,0.569,1.062,0.742c1.375,0.614,2.469,1.709,3.084,3.084c0.174,0.387,0.421,0.748,0.742,1.062
		c1.336,1.303,3.495,1.297,4.826-0.01C106.425,383.189,106.757,382.5,106.863,381.783L106.863,381.783z"/>
	
		<ellipse id="XMLID_224_" transform="matrix(-0.7071 -0.7071 0.7071 -0.7071 -73.9078 702.1803)" cx="108.472" cy="366.397" rx="2.362" ry="2.979"/>
	
		<ellipse id="XMLID_223_" transform="matrix(-0.7071 -0.7071 0.7071 -0.7071 -89.2964 696.4771)" cx="99.597" cy="366.732" rx="2.362" ry="2.98"/>
	
		<ellipse id="XMLID_222_" transform="matrix(-0.7071 -0.7071 0.7071 -0.7071 -68.6544 714.8632)" cx="113.726" cy="371.65" rx="2.362" ry="2.978"/>
	
		<ellipse id="XMLID_221_" transform="matrix(-0.7071 -0.7071 0.7071 -0.7071 -75.6142 729.5155)" cx="113.281" cy="380.418" rx="2.362" ry="2.978"/>
</g>
<g id="XMLID_214_" opacity="0.05">
	<path id="XMLID_219_" d="M48.67,414.059c0.095-0.637,0.385-1.227,0.845-1.678c0.006-0.008,0.014-0.014,0.021-0.021
		c1.685-1.686,1.28-4.822-0.905-7.008c-2.185-2.184-5.322-2.59-7.008-0.904c-0.008,0.008-0.016,0.016-0.022,0.023
		c-0.45,0.459-1.04,0.748-1.677,0.844c-0.717,0.105-1.404,0.438-1.953,0.994c-1.307,1.332-1.312,3.49-0.009,4.826
		c0.314,0.32,0.676,0.568,1.062,0.742c1.375,0.613,2.47,1.709,3.084,3.084c0.174,0.387,0.422,0.748,0.743,1.061
		c1.336,1.303,3.495,1.299,4.825-0.008C48.233,415.465,48.565,414.775,48.67,414.059L48.67,414.059z"/>
	
		<ellipse id="XMLID_218_" transform="matrix(-0.7071 -0.7071 0.7071 -0.7071 -196.0694 716.1292)" cx="50.281" cy="398.672" rx="2.362" ry="2.978"/>
	
		<ellipse id="XMLID_217_" transform="matrix(-0.7072 -0.707 0.707 -0.7072 -211.4145 710.463)" cx="41.404" cy="399.008" rx="2.362" ry="2.98"/>
	
		<ellipse id="XMLID_216_" transform="matrix(-0.7071 -0.7071 0.7071 -0.7071 -190.8188 728.8118)" cx="55.532" cy="403.926" rx="2.362" ry="2.979"/>
	
		<ellipse id="XMLID_215_" transform="matrix(-0.7071 -0.7071 0.7071 -0.7071 -197.7786 743.4641)" cx="55.087" cy="412.693" rx="2.362" ry="2.978"/>
</g>
<g id="XMLID_208_" opacity="0.05">
	<path id="XMLID_213_" d="M235.963,306.965c0.095-0.639,0.386-1.228,0.845-1.68c0.006-0.006,0.014-0.013,0.021-0.02
		c1.685-1.686,1.28-4.823-0.904-7.008c-2.185-2.186-5.323-2.591-7.009-0.905c-0.008,0.007-0.016,0.015-0.022,0.022
		c-0.45,0.459-1.04,0.75-1.677,0.844c-0.716,0.107-1.404,0.438-1.953,0.996c-1.307,1.33-1.311,3.488-0.008,4.824
		c0.313,0.322,0.674,0.57,1.061,0.742c1.375,0.615,2.47,1.71,3.086,3.085c0.172,0.386,0.419,0.747,0.741,1.062
		c1.336,1.303,3.495,1.299,4.825-0.01C235.527,308.37,235.858,307.681,235.963,306.965L235.963,306.965z"/>
	
		<ellipse id="XMLID_212_" transform="matrix(-0.7071 -0.7071 0.7071 -0.7071 199.3864 665.7448)" cx="237.573" cy="291.578" rx="2.362" ry="2.979"/>
	
		<ellipse id="XMLID_211_" transform="matrix(-0.7072 -0.707 0.707 -0.7072 184.051 660.0449)" cx="228.697" cy="291.912" rx="2.362" ry="2.979"/>
	
		<ellipse id="XMLID_210_" transform="matrix(-0.7072 -0.707 0.707 -0.7072 204.6936 678.4334)" cx="242.826" cy="296.832" rx="2.362" ry="2.979"/>
	
		<ellipse id="XMLID_209_" transform="matrix(-0.707 -0.7072 0.7072 -0.707 197.6209 693.0724)" cx="242.38" cy="305.599" rx="2.362" ry="2.979"/>
</g>
<g id="XMLID_202_" opacity="0.05">
	<path id="XMLID_207_" d="M170.435,336.305c0.095-0.637,0.385-1.227,0.844-1.678c0.008-0.007,0.015-0.014,0.021-0.02
		c1.686-1.687,1.28-4.824-0.904-7.009c-2.186-2.185-5.322-2.591-7.008-0.905c-0.008,0.008-0.016,0.016-0.023,0.023
		c-0.45,0.459-1.04,0.748-1.676,0.844c-0.717,0.105-1.405,0.438-1.953,0.994c-1.308,1.332-1.312,3.49-0.01,4.826
		c0.314,0.321,0.676,0.568,1.062,0.741c1.375,0.615,2.469,1.71,3.084,3.085c0.174,0.387,0.42,0.748,0.742,1.062
		c1.336,1.303,3.494,1.298,4.826-0.01C169.997,337.711,170.329,337.021,170.435,336.305L170.435,336.305z"/>
	
		<ellipse id="XMLID_206_" transform="matrix(-0.7071 -0.7071 0.7071 -0.7071 66.7762 669.4955)" cx="172.045" cy="320.918" rx="2.362" ry="2.978"/>
	
		<ellipse id="XMLID_205_" transform="matrix(-0.7071 -0.7071 0.7071 -0.7071 51.3864 663.7927)" cx="163.169" cy="321.254" rx="2.362" ry="2.978"/>
	
		<ellipse id="XMLID_204_" transform="matrix(-0.707 -0.7072 0.7072 -0.707 71.9761 682.1644)" cx="177.298" cy="326.172" rx="2.362" ry="2.978"/>
	
		<ellipse id="XMLID_203_" transform="matrix(-0.7071 -0.7071 0.7071 -0.7071 65.0686 696.8312)" cx="176.853" cy="334.939" rx="2.362" ry="2.978"/>
</g>
<g id="XMLID_196_" opacity="0.05">
	<path id="XMLID_201_" d="M110.286,303.541c0.094-0.637,0.385-1.227,0.844-1.678c0.007-0.008,0.014-0.014,0.021-0.021
		c1.685-1.686,1.279-4.822-0.905-7.008s-5.322-2.59-7.008-0.904c-0.008,0.008-0.016,0.016-0.022,0.023
		c-0.451,0.458-1.041,0.748-1.677,0.843c-0.717,0.106-1.405,0.438-1.952,0.995c-1.309,1.332-1.312,3.488-0.01,4.825
		c0.314,0.321,0.676,0.569,1.062,0.742c1.375,0.614,2.47,1.71,3.085,3.085c0.173,0.387,0.42,0.747,0.742,1.061
		c1.336,1.303,3.494,1.299,4.826-0.009C109.849,304.947,110.181,304.258,110.286,303.541L110.286,303.541z"/>
	
		<ellipse id="XMLID_200_" transform="matrix(-0.7071 -0.7071 0.7071 -0.7071 -12.7379 571.0324)" cx="111.896" cy="288.154" rx="2.362" ry="2.978"/>
	
		<ellipse id="XMLID_199_" transform="matrix(-0.7072 -0.707 0.707 -0.7072 -28.0863 565.3491)" cx="103.02" cy="288.49" rx="2.362" ry="2.979"/>
	
		<ellipse id="XMLID_198_" transform="matrix(-0.7072 -0.707 0.707 -0.7072 -7.4424 583.7343)" cx="117.149" cy="293.408" rx="2.362" ry="2.978"/>
	
		<ellipse id="XMLID_197_" transform="matrix(-0.7071 -0.7071 0.7071 -0.7071 -14.4454 598.368)" cx="116.703" cy="302.176" rx="2.362" ry="2.978"/>
</g>
<g id="XMLID_189_" opacity="0.05">
	<path id="XMLID_194_" d="M52.093,335.816c0.095-0.638,0.385-1.227,0.844-1.679c0.008-0.007,0.015-0.013,0.021-0.021
		c1.686-1.686,1.28-4.822-0.904-7.008c-2.186-2.186-5.322-2.59-7.009-0.904c-0.007,0.007-0.015,0.015-0.022,0.022
		c-0.449,0.458-1.041,0.749-1.676,0.843c-0.717,0.107-1.406,0.439-1.953,0.996c-1.308,1.331-1.312,3.488-0.01,4.824
		c0.314,0.322,0.676,0.57,1.062,0.742c1.375,0.615,2.469,1.711,3.084,3.086c0.173,0.387,0.42,0.747,0.742,1.061
		c1.336,1.303,3.494,1.299,4.826-0.01C51.656,337.223,51.988,336.533,52.093,335.816L52.093,335.816z"/>
	
		<ellipse id="XMLID_193_" transform="matrix(-0.7072 -0.707 0.707 -0.7072 -134.8628 585.0089)" cx="53.703" cy="320.43" rx="2.362" ry="2.979"/>
	
		<ellipse id="XMLID_192_" transform="matrix(-0.7071 -0.7071 0.7071 -0.7071 -150.2897 579.2772)" cx="44.827" cy="320.765" rx="2.362" ry="2.979"/>
	
		<ellipse id="XMLID_191_" transform="matrix(-0.7071 -0.7071 0.7071 -0.7071 -129.6484 597.665)" cx="58.956" cy="325.684" rx="2.362" ry="2.978"/>
	
		<ellipse id="XMLID_190_" transform="matrix(-0.7071 -0.7071 0.7071 -0.7071 -136.6082 612.3174)" cx="58.511" cy="334.451" rx="2.362" ry="2.978"/>
</g>
<g id="XMLID_376_" opacity="0.05">
	<path id="XMLID_381_" d="M460.147,461.683c0.095-0.638,0.385-1.227,0.845-1.678c0.007-0.007,0.014-0.014,0.021-0.021
		c1.686-1.687,1.28-4.823-0.904-7.009c-2.186-2.186-5.322-2.59-7.008-0.904c-0.008,0.008-0.016,0.016-0.023,0.023
		c-0.45,0.458-1.04,0.748-1.676,0.843c-0.717,0.106-1.405,0.438-1.953,0.995c-1.308,1.332-1.312,3.488-0.01,4.826
		c0.314,0.32,0.676,0.568,1.062,0.741c1.375,0.614,2.469,1.71,3.084,3.085c0.174,0.387,0.42,0.747,0.742,1.062
		c1.336,1.303,3.494,1.298,4.826-0.01C459.709,463.089,460.041,462.399,460.147,461.683L460.147,461.683z"/>
	
		<ellipse id="XMLID_380_" transform="matrix(-0.7071 -0.7071 0.7071 -0.7071 472.6898 1088.3864)" cx="461.757" cy="446.296" rx="2.362" ry="2.978"/>
	
		<ellipse id="XMLID_379_" transform="matrix(-0.7071 -0.7071 0.7071 -0.7071 457.3 1082.6836)" cx="452.881" cy="446.632" rx="2.362" ry="2.979"/>
	
		<ellipse id="XMLID_378_" transform="matrix(-0.7071 -0.7071 0.7071 -0.7071 477.942 1101.0697)" cx="467.01" cy="451.55" rx="2.362" ry="2.978"/>
	
		<ellipse id="XMLID_377_" transform="matrix(-0.7071 -0.7071 0.7071 -0.7071 470.9822 1115.7219)" cx="466.565" cy="460.317" rx="2.362" ry="2.978"/>
</g>
<g id="XMLID_370_" opacity="0.05">
	<path id="XMLID_375_" d="M394.618,491.024c0.095-0.638,0.386-1.228,0.845-1.68c0.007-0.006,0.014-0.013,0.021-0.02
		c1.684-1.686,1.279-4.824-0.905-7.008c-2.185-2.186-5.323-2.59-7.009-0.905c-0.008,0.007-0.016,0.016-0.021,0.022
		c-0.451,0.459-1.041,0.75-1.678,0.844c-0.716,0.107-1.404,0.438-1.952,0.996c-1.308,1.33-1.312,3.488-0.009,4.824
		c0.314,0.322,0.675,0.569,1.061,0.742c1.375,0.615,2.471,1.71,3.086,3.086c0.172,0.385,0.42,0.747,0.741,1.061
		c1.337,1.303,3.495,1.299,4.826-0.01C394.182,492.43,394.513,491.739,394.618,491.024L394.618,491.024z"/>
	
		<ellipse id="XMLID_374_" transform="matrix(-0.707 -0.7072 0.7072 -0.707 339.9884 1092.1313)" cx="396.229" cy="475.637" rx="2.362" ry="2.979"/>
	
		<ellipse id="XMLID_373_" transform="matrix(-0.7072 -0.707 0.707 -0.7072 324.7798 1086.4437)" cx="387.353" cy="475.972" rx="2.362" ry="2.978"/>
	
		<ellipse id="XMLID_372_" transform="matrix(-0.7073 -0.7069 0.7069 -0.7073 345.5128 1104.8401)" cx="401.482" cy="480.892" rx="2.362" ry="2.979"/>
	
		<ellipse id="XMLID_371_" transform="matrix(-0.7071 -0.7071 0.7071 -0.7071 338.3696 1119.4736)" cx="401.035" cy="489.658" rx="2.362" ry="2.98"/>
</g>
<g id="XMLID_364_" opacity="0.05">
	<path id="XMLID_369_" d="M334.469,458.259c0.096-0.637,0.386-1.227,0.845-1.678c0.007-0.006,0.015-0.014,0.021-0.02
		c1.685-1.687,1.28-4.824-0.905-7.009c-2.185-2.185-5.322-2.591-7.008-0.905c-0.008,0.008-0.016,0.016-0.022,0.023
		c-0.45,0.459-1.04,0.75-1.677,0.844c-0.717,0.107-1.404,0.438-1.953,0.995c-1.307,1.331-1.312,3.489-0.008,4.825
		c0.313,0.322,0.674,0.57,1.061,0.742c1.375,0.615,2.47,1.709,3.085,3.084c0.173,0.387,0.42,0.748,0.741,1.062
		c1.337,1.304,3.495,1.299,4.826-0.009C334.032,459.666,334.364,458.977,334.469,458.259L334.469,458.259z"/>
	
		<ellipse id="XMLID_368_" transform="matrix(-0.7072 -0.707 0.707 -0.7072 260.6461 993.687)" cx="336.08" cy="442.873" rx="2.362" ry="2.979"/>
	
		<ellipse id="XMLID_367_" transform="matrix(-0.7072 -0.707 0.707 -0.7072 245.2562 987.9835)" cx="327.204" cy="443.208" rx="2.362" ry="2.979"/>
	
		<ellipse id="XMLID_366_" transform="matrix(-0.7071 -0.7071 0.7071 -0.7071 265.817 1006.3589)" cx="341.332" cy="448.127" rx="2.362" ry="2.979"/>
	
		<ellipse id="XMLID_365_" transform="matrix(-0.7069 -0.7073 0.7073 -0.7069 258.6923 1020.9872)" cx="340.887" cy="456.895" rx="2.362" ry="2.979"/>
</g>
<g id="XMLID_358_" opacity="0.05">
	<path id="XMLID_363_" d="M276.277,490.534c0.095-0.637,0.386-1.227,0.845-1.678c0.006-0.007,0.014-0.014,0.021-0.021
		c1.685-1.686,1.279-4.823-0.906-7.008c-2.184-2.185-5.321-2.591-7.008-0.905c-0.008,0.008-0.015,0.016-0.021,0.023
		c-0.451,0.459-1.041,0.748-1.678,0.843c-0.716,0.107-1.404,0.438-1.952,0.996c-1.308,1.331-1.312,3.488-0.009,4.825
		c0.314,0.321,0.675,0.568,1.061,0.741c1.375,0.616,2.471,1.71,3.085,3.085c0.173,0.387,0.421,0.748,0.742,1.062
		c1.337,1.303,3.495,1.299,4.825-0.01C275.839,491.94,276.171,491.251,276.277,490.534L276.277,490.534z"/>
	
		<ellipse id="XMLID_362_" transform="matrix(-0.7071 -0.7071 0.7071 -0.7071 138.4027 1007.6232)" cx="277.887" cy="475.147" rx="2.362" ry="2.978"/>
	
		<ellipse id="XMLID_361_" transform="matrix(-0.7072 -0.707 0.707 -0.7072 123.0907 1001.9421)" cx="269.011" cy="475.483" rx="2.362" ry="2.979"/>
	
		<ellipse id="XMLID_360_" transform="matrix(-0.7071 -0.7071 0.7071 -0.7071 143.655 1020.3066)" cx="283.14" cy="480.401" rx="2.362" ry="2.978"/>
	
		<ellipse id="XMLID_359_" transform="matrix(-0.7072 -0.707 0.707 -0.7072 136.7741 1034.9799)" cx="282.694" cy="489.169" rx="2.362" ry="2.978"/>
</g>
<g id="XMLID_352_" opacity="0.05">
	<path id="XMLID_357_" d="M484.598,386.374c0.094-0.637,0.385-1.227,0.844-1.678c0.007-0.007,0.014-0.014,0.021-0.021
		c1.685-1.687,1.28-4.823-0.905-7.008c-2.185-2.186-5.321-2.591-7.008-0.905c-0.007,0.008-0.016,0.015-0.022,0.022
		c-0.451,0.459-1.041,0.75-1.677,0.844c-0.716,0.107-1.405,0.438-1.952,0.995c-1.309,1.331-1.312,3.489-0.01,4.825
		c0.314,0.322,0.676,0.569,1.062,0.742c1.374,0.615,2.469,1.71,3.084,3.085c0.173,0.387,0.42,0.748,0.742,1.062
		c1.336,1.303,3.494,1.298,4.826-0.01C484.16,387.78,484.492,387.091,484.598,386.374L484.598,386.374z"/>
	
		<ellipse id="XMLID_356_" transform="matrix(-0.707 -0.7072 0.7072 -0.707 567.5912 977.1282)" cx="486.207" cy="370.988" rx="2.362" ry="2.979"/>
	
		<ellipse id="XMLID_355_" transform="matrix(-0.7072 -0.707 0.707 -0.7072 552.3795 971.4003)" cx="477.332" cy="371.322" rx="2.362" ry="2.978"/>
	
		<ellipse id="XMLID_354_" transform="matrix(-0.7071 -0.7071 0.7071 -0.7071 572.9333 989.8011)" cx="491.461" cy="376.242" rx="2.362" ry="2.978"/>
	
		<ellipse id="XMLID_353_" transform="matrix(-0.7071 -0.7071 0.7071 -0.7071 565.9742 1004.4518)" cx="491.016" cy="385.009" rx="2.362" ry="2.978"/>
</g>
<g id="XMLID_346_" opacity="0.05">
	<path id="XMLID_351_" d="M419.07,415.716c0.095-0.638,0.385-1.227,0.845-1.68c0.006-0.006,0.014-0.013,0.021-0.02
		c1.685-1.686,1.28-4.823-0.905-7.008c-2.185-2.186-5.322-2.59-7.008-0.905c-0.008,0.008-0.016,0.015-0.022,0.022
		c-0.45,0.459-1.04,0.75-1.677,0.844c-0.717,0.107-1.404,0.438-1.952,0.996c-1.308,1.33-1.312,3.488-0.009,4.824
		c0.313,0.322,0.674,0.57,1.061,0.742c1.375,0.615,2.47,1.71,3.085,3.085c0.173,0.387,0.421,0.748,0.742,1.062
		c1.336,1.303,3.495,1.299,4.825-0.01C418.632,417.121,418.964,416.432,419.07,415.716L419.07,415.716z"/>
	
		<ellipse id="XMLID_350_" transform="matrix(-0.7072 -0.707 0.707 -0.7072 435.1542 980.8677)" cx="420.679" cy="400.329" rx="2.362" ry="2.979"/>
	
		<ellipse id="XMLID_349_" transform="matrix(-0.7071 -0.7071 0.7071 -0.7071 419.6806 975.1646)" cx="411.803" cy="400.664" rx="2.362" ry="2.979"/>
	
		<ellipse id="XMLID_348_" transform="matrix(-0.7071 -0.7071 0.7071 -0.7071 440.3207 993.5529)" cx="425.932" cy="405.583" rx="2.362" ry="2.979"/>
	
		<ellipse id="XMLID_347_" transform="matrix(-0.707 -0.7072 0.7072 -0.707 433.2744 1008.2054)" cx="425.487" cy="414.35" rx="2.362" ry="2.979"/>
</g>
<g id="XMLID_340_" opacity="0.05">
	<path id="XMLID_345_" d="M358.92,382.951c0.096-0.638,0.385-1.227,0.845-1.679c0.007-0.007,0.014-0.013,0.021-0.021
		c1.686-1.686,1.28-4.822-0.904-7.008c-2.186-2.186-5.322-2.59-7.008-0.904c-0.008,0.008-0.016,0.016-0.023,0.022
		c-0.449,0.459-1.04,0.749-1.676,0.844c-0.717,0.106-1.405,0.438-1.953,0.995c-1.308,1.332-1.312,3.488-0.009,4.825
		c0.313,0.321,0.675,0.569,1.062,0.742c1.375,0.614,2.469,1.709,3.084,3.085c0.174,0.386,0.421,0.747,0.742,1.062
		c1.336,1.303,3.495,1.298,4.826-0.01C358.483,384.357,358.815,383.668,358.92,382.951L358.92,382.951z"/>
	
		<ellipse id="XMLID_344_" transform="matrix(-0.7072 -0.707 0.707 -0.7072 355.6312 882.4058)" cx="360.53" cy="367.564" rx="2.362" ry="2.979"/>
	
		<ellipse id="XMLID_343_" transform="matrix(-0.7071 -0.7071 0.7071 -0.7071 340.167 876.7026)" cx="351.655" cy="367.9" rx="2.362" ry="2.98"/>
	
		<ellipse id="XMLID_342_" transform="matrix(-0.7071 -0.7071 0.7071 -0.7071 360.809 895.0887)" cx="365.783" cy="372.818" rx="2.362" ry="2.978"/>
	
		<ellipse id="XMLID_341_" transform="matrix(-0.707 -0.7072 0.7072 -0.707 353.7724 909.7385)" cx="365.338" cy="381.585" rx="2.362" ry="2.977"/>
</g>
<g id="XMLID_334_" opacity="0.05">
	<path id="XMLID_339_" d="M300.728,415.226c0.095-0.637,0.385-1.227,0.845-1.678c0.006-0.007,0.014-0.014,0.021-0.021
		c1.685-1.686,1.28-4.823-0.905-7.008c-2.185-2.185-5.322-2.591-7.008-0.905c-0.008,0.008-0.016,0.016-0.022,0.023
		c-0.45,0.459-1.04,0.749-1.677,0.844c-0.717,0.106-1.404,0.438-1.953,0.994c-1.307,1.332-1.312,3.49-0.009,4.826
		c0.314,0.321,0.676,0.569,1.062,0.742c1.375,0.614,2.47,1.709,3.084,3.084c0.174,0.387,0.422,0.748,0.743,1.062
		c1.336,1.303,3.495,1.298,4.825-0.009C300.29,416.632,300.622,415.942,300.728,415.226L300.728,415.226z"/>
	
		<ellipse id="XMLID_338_" transform="matrix(-0.7071 -0.7071 0.7071 -0.7071 233.394 896.3546)" cx="302.338" cy="399.84" rx="2.362" ry="2.978"/>
	
		<ellipse id="XMLID_337_" transform="matrix(-0.7072 -0.707 0.707 -0.7072 218.0758 890.6609)" cx="293.462" cy="400.175" rx="2.362" ry="2.979"/>
	
		<ellipse id="XMLID_336_" transform="matrix(-0.7071 -0.7071 0.7071 -0.7071 238.6446 909.0373)" cx="307.59" cy="405.094" rx="2.362" ry="2.98"/>
	
		<ellipse id="XMLID_335_" transform="matrix(-0.707 -0.7072 0.7072 -0.707 231.6106 923.6777)" cx="307.145" cy="413.861" rx="2.362" ry="2.978"/>
</g>
<g id="XMLID_328_" opacity="0.05">
	<path id="XMLID_333_" d="M484.598,386.374c0.094-0.637,0.385-1.227,0.844-1.678c0.007-0.007,0.014-0.014,0.021-0.021
		c1.685-1.687,1.28-4.823-0.905-7.008c-2.185-2.186-5.321-2.591-7.008-0.905c-0.007,0.008-0.016,0.015-0.022,0.022
		c-0.451,0.459-1.041,0.75-1.677,0.844c-0.716,0.107-1.405,0.438-1.952,0.995c-1.309,1.331-1.312,3.489-0.01,4.825
		c0.314,0.322,0.676,0.569,1.062,0.742c1.374,0.615,2.469,1.71,3.084,3.085c0.173,0.387,0.42,0.748,0.742,1.062
		c1.336,1.303,3.494,1.298,4.826-0.01C484.16,387.78,484.492,387.091,484.598,386.374L484.598,386.374z"/>
	
		<ellipse id="XMLID_332_" transform="matrix(-0.707 -0.7072 0.7072 -0.707 567.5912 977.1282)" cx="486.207" cy="370.988" rx="2.362" ry="2.979"/>
	
		<ellipse id="XMLID_331_" transform="matrix(-0.7072 -0.707 0.707 -0.7072 552.3795 971.4003)" cx="477.332" cy="371.322" rx="2.362" ry="2.978"/>
	
		<ellipse id="XMLID_330_" transform="matrix(-0.7071 -0.7071 0.7071 -0.7071 572.9333 989.8011)" cx="491.461" cy="376.242" rx="2.362" ry="2.978"/>
	
		<ellipse id="XMLID_329_" transform="matrix(-0.7071 -0.7071 0.7071 -0.7071 565.9742 1004.4518)" cx="491.016" cy="385.009" rx="2.362" ry="2.978"/>
</g>
<g id="XMLID_322_" opacity="0.05">
	<path id="XMLID_327_" d="M419.07,415.716c0.095-0.638,0.385-1.227,0.845-1.68c0.006-0.006,0.014-0.013,0.021-0.02
		c1.685-1.686,1.28-4.823-0.905-7.008c-2.185-2.186-5.322-2.59-7.008-0.905c-0.008,0.008-0.016,0.015-0.022,0.022
		c-0.45,0.459-1.04,0.75-1.677,0.844c-0.717,0.107-1.404,0.438-1.952,0.996c-1.308,1.33-1.312,3.488-0.009,4.824
		c0.313,0.322,0.674,0.57,1.061,0.742c1.375,0.615,2.47,1.71,3.085,3.085c0.173,0.387,0.421,0.748,0.742,1.062
		c1.336,1.303,3.495,1.299,4.825-0.01C418.632,417.121,418.964,416.432,419.07,415.716L419.07,415.716z"/>
	
		<ellipse id="XMLID_326_" transform="matrix(-0.7072 -0.707 0.707 -0.7072 435.1542 980.8677)" cx="420.679" cy="400.329" rx="2.362" ry="2.979"/>
	
		<ellipse id="XMLID_325_" transform="matrix(-0.7071 -0.7071 0.7071 -0.7071 419.6806 975.1646)" cx="411.803" cy="400.664" rx="2.362" ry="2.979"/>
	
		<ellipse id="XMLID_324_" transform="matrix(-0.7071 -0.7071 0.7071 -0.7071 440.3207 993.5529)" cx="425.932" cy="405.583" rx="2.362" ry="2.979"/>
	
		<ellipse id="XMLID_323_" transform="matrix(-0.707 -0.7072 0.7072 -0.707 433.2744 1008.2054)" cx="425.487" cy="414.35" rx="2.362" ry="2.979"/>
</g>
<g id="XMLID_316_" opacity="0.05">
	<path id="XMLID_321_" d="M358.92,382.951c0.096-0.638,0.385-1.227,0.845-1.679c0.007-0.007,0.014-0.013,0.021-0.021
		c1.686-1.686,1.28-4.822-0.904-7.008c-2.186-2.186-5.322-2.59-7.008-0.904c-0.008,0.008-0.016,0.016-0.023,0.022
		c-0.449,0.459-1.04,0.749-1.676,0.844c-0.717,0.106-1.405,0.438-1.953,0.995c-1.308,1.332-1.312,3.488-0.009,4.825
		c0.313,0.321,0.675,0.569,1.062,0.742c1.375,0.614,2.469,1.709,3.084,3.085c0.174,0.386,0.421,0.747,0.742,1.062
		c1.336,1.303,3.495,1.298,4.826-0.01C358.483,384.357,358.815,383.668,358.92,382.951L358.92,382.951z"/>
	
		<ellipse id="XMLID_320_" transform="matrix(-0.7072 -0.707 0.707 -0.7072 355.6312 882.4058)" cx="360.53" cy="367.564" rx="2.362" ry="2.979"/>
	
		<ellipse id="XMLID_319_" transform="matrix(-0.7071 -0.7071 0.7071 -0.7071 340.167 876.7026)" cx="351.655" cy="367.9" rx="2.362" ry="2.98"/>
	
		<ellipse id="XMLID_318_" transform="matrix(-0.7071 -0.7071 0.7071 -0.7071 360.809 895.0887)" cx="365.783" cy="372.818" rx="2.362" ry="2.978"/>
	
		<ellipse id="XMLID_317_" transform="matrix(-0.707 -0.7072 0.7072 -0.707 353.7724 909.7385)" cx="365.338" cy="381.585" rx="2.362" ry="2.977"/>
</g>
<g id="XMLID_310_" opacity="0.05">
	<path id="XMLID_315_" d="M300.728,415.226c0.095-0.637,0.385-1.227,0.845-1.678c0.006-0.007,0.014-0.014,0.021-0.021
		c1.685-1.686,1.28-4.823-0.905-7.008c-2.185-2.185-5.322-2.591-7.008-0.905c-0.008,0.008-0.016,0.016-0.022,0.023
		c-0.45,0.459-1.04,0.749-1.677,0.844c-0.717,0.106-1.404,0.438-1.953,0.994c-1.307,1.332-1.312,3.49-0.009,4.826
		c0.314,0.321,0.676,0.569,1.062,0.742c1.375,0.614,2.47,1.709,3.084,3.084c0.174,0.387,0.422,0.748,0.743,1.062
		c1.336,1.303,3.495,1.298,4.825-0.009C300.29,416.632,300.622,415.942,300.728,415.226L300.728,415.226z"/>
	
		<ellipse id="XMLID_314_" transform="matrix(-0.7071 -0.7071 0.7071 -0.7071 233.394 896.3546)" cx="302.338" cy="399.84" rx="2.362" ry="2.978"/>
	
		<ellipse id="XMLID_313_" transform="matrix(-0.7072 -0.707 0.707 -0.7072 218.0758 890.6609)" cx="293.462" cy="400.175" rx="2.362" ry="2.979"/>
	
		<ellipse id="XMLID_312_" transform="matrix(-0.7071 -0.7071 0.7071 -0.7071 238.6446 909.0373)" cx="307.59" cy="405.094" rx="2.362" ry="2.98"/>
	
		<ellipse id="XMLID_311_" transform="matrix(-0.707 -0.7072 0.7072 -0.707 231.6106 923.6777)" cx="307.145" cy="413.861" rx="2.362" ry="2.978"/>
</g>
<g id="XMLID_304_" opacity="0.05">
	<path id="XMLID_309_" d="M488.021,308.132c0.095-0.638,0.386-1.228,0.845-1.679c0.006-0.006,0.014-0.014,0.021-0.02
		c1.685-1.686,1.28-4.824-0.904-7.009s-5.323-2.591-7.009-0.905c-0.008,0.008-0.016,0.016-0.022,0.023
		c-0.45,0.459-1.04,0.749-1.677,0.844c-0.716,0.107-1.404,0.438-1.953,0.995c-1.307,1.331-1.311,3.489-0.008,4.825
		c0.313,0.322,0.674,0.569,1.061,0.742c1.375,0.615,2.47,1.709,3.086,3.084c0.172,0.387,0.419,0.748,0.741,1.062
		c1.336,1.303,3.495,1.298,4.825-0.01C487.584,309.537,487.915,308.848,488.021,308.132L488.021,308.132z"/>
	
		<ellipse id="XMLID_308_" transform="matrix(-0.7071 -0.7071 0.7071 -0.7071 628.8505 845.9686)" cx="489.631" cy="292.745" rx="2.362" ry="2.978"/>
	
		<ellipse id="XMLID_307_" transform="matrix(-0.7072 -0.707 0.707 -0.7072 613.5405 840.2444)" cx="480.755" cy="293.08" rx="2.362" ry="2.979"/>
	
		<ellipse id="XMLID_306_" transform="matrix(-0.7072 -0.707 0.707 -0.7072 634.1839 858.6313)" cx="494.884" cy="297.999" rx="2.362" ry="2.979"/>
	
		<ellipse id="XMLID_305_" transform="matrix(-0.707 -0.7072 0.7072 -0.707 627.0588 873.3222)" cx="494.438" cy="306.766" rx="2.362" ry="2.979"/>
</g>
<g id="XMLID_298_" opacity="0.05">
	<path id="XMLID_303_" d="M422.492,337.473c0.095-0.637,0.385-1.227,0.844-1.679c0.008-0.007,0.015-0.013,0.021-0.02
		c1.686-1.687,1.28-4.823-0.904-7.009c-2.186-2.185-5.322-2.59-7.008-0.904c-0.008,0.008-0.016,0.015-0.023,0.022
		c-0.45,0.459-1.04,0.749-1.676,0.844c-0.717,0.106-1.405,0.438-1.953,0.995c-1.308,1.331-1.312,3.489-0.01,4.825
		c0.314,0.321,0.676,0.569,1.062,0.741c1.375,0.615,2.469,1.711,3.084,3.086c0.174,0.387,0.42,0.747,0.742,1.061
		c1.336,1.303,3.494,1.299,4.826-0.01C422.055,338.879,422.387,338.189,422.492,337.473L422.492,337.473z"/>
	
		<ellipse id="XMLID_302_" transform="matrix(-0.7071 -0.7071 0.7071 -0.7071 496.2396 849.7211)" cx="424.103" cy="322.086" rx="2.362" ry="2.978"/>
	
		<ellipse id="XMLID_301_" transform="matrix(-0.707 -0.7072 0.7072 -0.707 480.7739 844.027)" cx="415.227" cy="322.421" rx="2.362" ry="2.979"/>
	
		<ellipse id="XMLID_300_" transform="matrix(-0.7071 -0.7071 0.7071 -0.7071 501.4918 862.4044)" cx="429.356" cy="327.34" rx="2.362" ry="2.978"/>
	
		<ellipse id="XMLID_299_" transform="matrix(-0.7071 -0.7071 0.7071 -0.7071 494.532 877.0567)" cx="428.91" cy="336.107" rx="2.362" ry="2.978"/>
</g>
<g id="XMLID_292_" opacity="0.05">
	<path id="XMLID_297_" d="M362.344,304.709c0.094-0.638,0.385-1.227,0.844-1.679c0.007-0.007,0.014-0.014,0.021-0.021
		c1.685-1.686,1.279-4.822-0.905-7.008s-5.322-2.59-7.008-0.905c-0.008,0.008-0.016,0.016-0.022,0.023
		c-0.451,0.458-1.041,0.749-1.677,0.843c-0.717,0.107-1.405,0.438-1.952,0.995c-1.309,1.332-1.312,3.489-0.01,4.825
		c0.314,0.322,0.676,0.57,1.062,0.742c1.375,0.615,2.47,1.71,3.085,3.086c0.173,0.386,0.42,0.746,0.742,1.061
		c1.336,1.303,3.494,1.299,4.826-0.01C361.906,306.115,362.239,305.426,362.344,304.709L362.344,304.709z"/>
	
		<ellipse id="XMLID_296_" transform="matrix(-0.7071 -0.7071 0.7071 -0.7071 416.7255 751.2579)" cx="363.953" cy="289.322" rx="2.362" ry="2.979"/>
	
		<ellipse id="XMLID_295_" transform="matrix(-0.7072 -0.707 0.707 -0.7072 401.4039 745.547)" cx="355.078" cy="289.657" rx="2.362" ry="2.979"/>
	
		<ellipse id="XMLID_294_" transform="matrix(-0.7072 -0.707 0.707 -0.7072 422.0472 763.9339)" cx="369.207" cy="294.576" rx="2.362" ry="2.979"/>
	
		<ellipse id="XMLID_293_" transform="matrix(-0.707 -0.7072 0.7072 -0.707 414.9489 778.5995)" cx="368.761" cy="303.343" rx="2.362" ry="2.979"/>
</g>
<g id="XMLID_286_" opacity="0.05">
	<path id="XMLID_291_" d="M304.151,336.984c0.095-0.639,0.385-1.228,0.844-1.68c0.008-0.006,0.015-0.013,0.021-0.02
		c1.686-1.686,1.28-4.823-0.904-7.008c-2.186-2.186-5.322-2.591-7.009-0.905c-0.007,0.007-0.015,0.015-0.022,0.022
		c-0.449,0.459-1.041,0.75-1.676,0.844c-0.717,0.107-1.406,0.438-1.953,0.995c-1.308,1.331-1.312,3.489-0.01,4.825
		c0.314,0.322,0.676,0.57,1.062,0.742c1.375,0.615,2.469,1.71,3.084,3.085c0.173,0.387,0.42,0.747,0.742,1.062
		c1.336,1.303,3.494,1.298,4.826-0.01C303.713,338.39,304.045,337.7,304.151,336.984L304.151,336.984z"/>
	
		<ellipse id="XMLID_290_" transform="matrix(-0.7071 -0.7071 0.7071 -0.7071 294.5623 765.2061)" cx="305.76" cy="321.597" rx="2.362" ry="2.979"/>
	
		<ellipse id="XMLID_289_" transform="matrix(-0.7071 -0.7071 0.7071 -0.7071 279.1744 759.5011)" cx="296.885" cy="321.932" rx="2.362" ry="2.978"/>
	
		<ellipse id="XMLID_288_" transform="matrix(-0.7071 -0.7071 0.7071 -0.7071 299.815 777.8906)" cx="311.014" cy="326.852" rx="2.362" ry="2.978"/>
	
		<ellipse id="XMLID_287_" transform="matrix(-0.707 -0.7072 0.7072 -0.707 292.7888 792.5394)" cx="310.569" cy="335.619" rx="2.362" ry="2.978"/>
</g>
</svg>
